M48
;Layer_Color=9474304
;FILE_FORMAT=2:5
INCH,TZ
;TYPE=PLATED
T1F00S00C0.01181
T2F00S00C0.01575
T3F00S00C0.02400
T4F00S00C0.03150
T5F00S00C0.03500
T6F00S00C0.04000
T7F00S00C0.04016
T8F00S00C0.05200
T9F00S00C0.20315
;TYPE=NON_PLATED
T10F00S00C0.04016
T11F00S00C0.12598
%
T01
X947803Y34149
X939929Y49897
X947803Y65645
X963551
X971425Y81393
X955677
X939929
X947803Y97141
X963551
X971425Y144385
X955677
X939929
X935303Y171937
X951051
X966799
X919555
X903807
X888059
X892685Y144385
X908433
X924181
X884811Y128637
X869063
X876937Y112889
X861189
X853366Y77378
X869114
Y61630
Y45882
X869063Y34149
X884811
X900559
X916307
X924181Y49897
X932055Y65645
X924181Y81393
X932055Y97141
X853366Y61630
Y45882
X853315Y34149
X837567
X837618Y45882
Y61630
Y77378
X821870
Y93126
Y108874
Y124622
Y140370
Y156118
Y171866
X806122
Y156118
Y140370
Y124622
Y108874
Y93126
Y77378
Y61630
X821870
Y45882
X821819Y34149
X806071
X806122Y45882
X790374
X790323Y34149
X790374Y61630
Y77378
Y93126
Y108874
Y124622
Y140370
Y156118
Y171866
X774626
Y156118
Y140370
Y124622
Y108874
Y93126
Y77378
Y61630
Y45882
X758878Y61630
Y77378
Y93126
Y108874
Y124622
Y140370
Y156118
Y171866
X743130
Y156118
Y140370
Y124622
Y108874
Y93126
Y77378
Y61630
X727382
Y77378
Y93126
Y108874
Y124622
Y140370
Y156118
Y171866
X711634
Y156118
Y140370
Y124622
Y108874
Y93126
Y77378
Y61630
X710191Y32849
X725939
X741687
X694443
X678695
X662947
X647199
X631451
X639325Y48597
X623577
X631451Y64345
X647199
X639325Y80093
X623577
X631451Y95841
X647199
X662947
X670821Y111589
X655073
Y143085
X670821
X680138Y156118
X695886
Y171866
X680138
X623577Y143085
X607829
X592081
X585281Y164700
X590202Y174542
X600045
X609887
X619730
X580360
X570517
X560675
X565596Y164700
X555754
X560585Y143085
X568459Y95841
X584207
X599955
X615703
X607829Y80093
X592081
X576333
X560585
X568459Y64345
X584207
X599955
X615703
X607829Y48597
X592081
X599955Y32849
X615703
X435992Y34149
X428118Y49897
X412370
X404496Y34149
X388748
X373000
X357252
X357303Y45882
Y61630
Y77378
X341555
Y61630
Y45882
X341504Y34149
X325756
X325807Y45882
Y61630
Y77378
X310059
Y93126
Y108874
Y124622
Y140370
Y156118
Y171866
X376248Y171937
X391996
X407744
X423492
X439240
X454988
X459614Y144385
X443866
X428118
X412370
X396622
X380874
X373000Y128637
X357252
X365126Y112889
X349378
X420244Y97141
X435992
X451740
X459614Y81393
X443866
X428118
X412370
X420244Y65645
X435992
X451740
X310059Y61630
Y45882
X310008Y34149
X294260
X294311Y45882
Y61630
Y77378
Y93126
Y108874
Y124622
Y140370
Y156118
Y171866
X278563
Y156118
Y140370
Y124622
Y108874
Y93126
Y77378
Y61630
Y45882
X278512Y34149
X262815Y45882
Y61630
Y77378
Y93126
Y108874
Y124622
Y140370
Y156118
Y171866
X247067
Y156118
Y140370
Y124622
Y108874
Y93126
Y77378
Y61630
X231319
Y77378
Y93126
Y108874
Y124622
Y140370
Y156118
Y171866
X215571
Y156118
Y140370
Y124622
Y108874
Y93126
Y77378
Y61630
X199823
Y77378
Y93126
Y108874
Y124622
Y140370
Y156118
Y171866
X184075
Y156118
X168327
Y171866
X159010Y143085
Y111589
X166884Y32849
X182632
X198380
X214128
X229876
X151136
X135388
X119640
X103892
X88144
X96018Y48597
X111766
X127514
X119640Y64345
X135388
X127514Y80093
X111766
X96018
X80270
X64522
X48774
X56648Y95841
X72396
X88144
X103892
X119640
X135388
X151136
X143262Y111589
Y143085
X111766
X96018
X80270
X73470Y164700
X78391Y174542
X88234
X98076
X107919
X68549
X58706
X48864
X53785Y164700
X43942
X48774Y143085
X56648Y64345
X72396
X88144
X103892
X80270Y48597
X83313Y184385
X93155
X102998
X112840
X73470
X63628
X53785
X43942
X48864Y194228
X43942Y204070
Y223755
X58706Y233598
X68549
X78391
X88234
X98076
X107919
X117761
X127604
X137446
X147289
X142368Y223755
X132525
X113336Y266357
Y329349
X42470Y313601
Y282105
X58218
X42470Y250609
X157132Y233598
X166974
X176817
X186659
X196502
X206344
X216187
X226029
X235872
X230950Y223755
X221108
X211265
X201423
X191580
X181738
X171895
X162053
X152210
X168327Y187614
X184075
X199823
X215571
X231319
X247067
X262815
X278563
X294311
X289634Y219181
X305382
X302313Y266357
X286565
X270816
X255068
X239320
X247195Y282105
X262943
X270816Y297853
X286565
X302313
X294439Y313601
X278691
X286565Y329349
X302313
X270816
X247195Y313601
X255068Y297853
X239320
X207824
X199950Y282105
X215698
X207824Y266357
X192076
X318061
X333809
X341683Y282105
X349557Y329349
X333809
X318061
X321130Y219181
X336878
X352626
X368374
X384122
X376248Y203433
X384122Y187685
X399870
X415618
X431366
X462862
X451919Y250609
X436171
X420423
X444045Y266357
X459793
Y297853
Y329349
X310059Y187614
X555754Y184385
X565596
X575439
X585281
X595124
X604966
X614809
X619730Y233598
X609887
X600045
X590202
X580360
X570517
X555754Y223755
Y204070
X560675Y194228
X554281Y250609
Y282105
X570029
X554281Y313601
X625147Y329349
Y266357
X629572Y233598
X639415
X649258
X659100
X668942
X678785
X688628
X698470
X708313
X718155
X727998
X737840
X747683
X742761Y223755
X732919
X723076
X713234
X703391
X693549
X683706
X673864
X664021
X654179
X644336
X624651Y184385
X680138Y187614
X695886
X711634
X727382
X743130
X758878
X774626
X766880Y266357
X751131
X759005Y282105
X774754
X766880Y297853
X751131
X759005Y313601
X719635Y297853
X711761Y282105
X727509
X719635Y266357
X703887
X782627
X798376
X814124
X829872
X845620
X853494Y282105
X861368Y329349
X845620
X829872
X814124
X798376
X782627
X790502Y313601
X806250
X814124Y297853
X798376
X782627
X801445Y219181
X817193
X832941
X848689
X864437
X880185
X895933
X888059Y203433
X895933Y187685
X911681
X927429
X932234Y250609
X821870Y187614
X806122
X790374
X943177Y187685
X974673
X963730Y250609
X947982
X955856Y266357
X971604
Y297853
Y329349
X955856Y360845
X940108
X947982Y376593
X908612Y392341
X892864
X900738Y408089
X916486
X900738Y471081
X924360Y486829
X837746Y439585
Y376593
X853494
X845620Y360845
X829872
X837746Y345097
X806250
X814124Y392341
X806250Y471081
X625147Y423837
Y392341
X617273Y376593
Y439585
X554281
Y471081
Y408089
Y376593
Y345097
X444045Y360845
X428297
X436171Y376593
X396801Y392341
X381053
X388927Y408089
X404675
X388927Y471081
X412549Y486829
X325935Y439585
Y376593
X341683
X333809Y360845
X318061
X325935Y345097
X294439
X302313Y392341
X294439Y471081
X105462Y439585
X113336Y423837
Y392341
X105462Y376593
X42470
Y408089
Y439585
Y471081
Y345097
Y502577
X50344Y518325
X42470Y534073
X58218
X73966
X89714
X105462
X121210
X136958
X144832Y549821
X129084
X113336
X105462Y565569
X121210
X136958
X89714
X81840Y549821
X42470Y565569
X105462Y502577
X152706Y534073
X168454
X184202
X199950
X215698
X231447
X247195
X262943
X278691
X294439
X302313Y549821
X286565
X270816
X255068
X239320
X223572
X207824
X192076
X176328
X160580
X152706Y565569
X168454
X184202
X199950
X215698
X231447
X247195
X262943
X278691
X294439
Y502577
X247195
X325935
Y534073
X341683
X357431
X373179
X388927
X381053Y549821
X365305
X349557
X333809
X318061
X310187Y565569
X325935
X341683
X357431
X373179
X388927
X404675
X420423
X436171
X428297Y549821
X451919Y502577
X373179
X381053Y518325
X365305
X310187Y534073
X554281
X570029
X585777
X601525
X617273
Y565569
X601525
X593651Y549821
X554281Y565569
X562155Y518325
X554281Y502577
X617273
X633021Y534073
X648769
X664517
X680265
X696013
X711761
X727509
X743258
X759005
X774754
X766880Y549821
X751131
X735384
X719635
X703887
X688139
X672391
X656643
X640895
X625147
X633021Y565569
X648769
X664517
X680265
X696013
X711761
X727509
X743258
X759005
X774754
X759005Y502577
X806250
X837746
Y534073
X853494
X869242
X884990
X900738
X892864Y549821
X877116
X861368
X845620
X829872
X814124
X798376
X782627
X790502Y565569
X806250
X821998
X837746
X853494
X869242
X884990
X900738
X916486
X932234
X892864Y518325
X877116
X884990Y502577
X821998Y534073
X806250
X790502
X940108Y549821
X947982Y565569
X963730Y502577
T02
X844081Y100485
X892681Y131785
X691181Y136885
X639681Y104785
X589681Y163185
X380870Y131785
X332270Y100485
X179370Y136885
X127870Y104785
X77870Y163185
X86556Y260985
Y285349
Y301714
Y317078
X141870Y313614
Y330976
X141970Y296249
Y278885
X141870Y261519
X272670Y252285
X247670Y328485
X332570Y318285
X350770Y302985
X374670Y304985
X371970Y296385
X374270Y292985
X398470Y291806
X398570Y296885
X399470Y310485
X405470Y309585
X411570Y307585
X403170Y333685
X369070Y315785
X384570Y267585
X400108Y272085
X413270Y263685
X407070Y256285
X381070Y249185
X341670Y257085
X437470Y284185
X452470Y290085
X452670Y330085
X598367Y317078
Y301714
Y285349
Y260985
X653681Y261519
X653781Y278885
Y296249
X653681Y313614
Y330976
X759481Y328485
X844381Y318285
X862581Y302985
X886481Y304985
X883781Y296385
X886081Y292985
X910281Y291806
X910381Y296885
X911281Y310485
X917281Y309585
X923381Y307585
X914981Y333685
X880881Y315785
X896381Y267585
X911919Y272085
X925081Y263685
X918881Y256285
X892881Y249185
X853481Y257085
X784481Y252285
X949281Y284185
X964281Y290085
X964481Y330085
X936581Y361785
X939681Y368285
X939781Y390500
X936781Y396185
X934181Y402085
X946281Y423985
X945681Y443847
X951081Y441185
X957981Y438085
X962181Y435185
X954481Y448085
X942581Y452285
X936281Y453585
X974771Y448892
X978881Y441085
X968281Y391585
X932081Y397685
X931581Y424285
X911681Y435185
X905581Y438985
X899781Y437785
X893881Y438585
X887681Y438885
X888781Y459885
X883781Y459785
X865081Y460285
X867081Y470407
X852681Y468439
X852481Y463485
X849881Y455285
X850981Y450885
X853881Y446885
X867581Y450285
X865081Y432785
X837981Y442885
X815181Y442985
X802581Y440485
X817981Y420885
X825481Y416885
X831981Y413785
X837581Y410485
X865081Y376041
X881081Y376785
X884581Y371585
X888281Y373485
X891181Y370385
X895313Y368217
X907124Y376785
X912119Y346723
X905681Y338585
X917881Y336685
X926081Y462085
X926381Y467085
X895781Y475885
X888981Y486185
X898981Y490585
X880981Y478485
X853181Y480785
X852381Y474285
X783981Y457585
X777681Y378785
X791081Y375585
X805681Y361785
X778981Y339885
X772181Y342185
X768181
X759181Y352985
X762881Y357885
X773681Y364732
X759281Y373085
X752381Y374185
X759345Y395585
X765181Y406085
X751681Y440085
X724281Y440016
X708181Y436585
X653681Y435160
Y418270
Y400432
Y383071
Y365706
Y348342
X708181Y342785
X707581Y358385
X724281Y356085
X751281Y346885
X653681Y452525
Y469887
Y487256
X598367Y486721
Y469356
Y451992
Y434628
Y417264
Y401899
Y387535
Y365171
Y350806
Y335442
X467070Y441085
X462960Y448892
X442670Y448085
X439270Y441185
X433870Y443847
X430770Y452285
X424470Y453585
X414270Y462085
X414570Y467085
X383970Y475885
X377170Y486185
X387170Y490585
X369170Y478485
X371970Y459785
X376970Y459885
X375870Y438885
X382070Y438585
X387970Y437785
X393770Y438985
X399870Y435185
X419770Y424285
X434470Y423985
X446170Y438085
X450370Y435185
X456470Y391585
X427970Y390500
X424970Y396185
X420270Y397685
X422370Y402085
X427870Y368285
X424770Y361785
X400308Y346723
X393870Y338585
X406070Y336685
X395313Y376785
X383502Y368217
X379370Y370385
X376470Y373485
X372770Y371585
X369270Y376785
X353270Y376041
Y432785
X355770Y450285
X353270Y460285
X355270Y470407
X340870Y468439
X340670Y463485
X338070Y455285
X339170Y450885
X342070Y446885
X326170Y442885
X325770Y410485
X320170Y413785
X313670Y416885
X340570Y474285
X341370Y480785
X303370Y442985
X290770Y440485
X306170Y420885
X253370Y406085
X247534Y395585
X247470Y373085
X240570Y374185
X251070Y357885
X247370Y352985
X239470Y346885
X256370Y342185
X260370
X267170Y339885
X261870Y364732
X265870Y378785
X279270Y375585
X293870Y361785
X212470Y356085
X195770Y358385
X196370Y342785
Y436585
X212470Y440016
X239870Y440085
X272170Y457585
X141870Y452525
Y469887
Y487256
Y435160
Y418270
Y400432
Y383071
Y365706
Y348342
X86556Y350806
Y365171
Y387535
Y401899
Y417264
Y434628
Y451992
Y469356
Y486721
Y335442
Y504085
X141870Y504621
X285070Y521485
X357570Y492085
X384070Y498985
X598367Y504085
X653681Y504621
X796881Y521485
X869381Y492085
X895881Y498985
T03
X962181Y464685
X967181
Y469685
Y474685
X962181
Y479685
X967181
Y484685
X962181
Y469685
X455370
Y474685
X450370
Y479685
X455370
Y484685
X450370
Y469685
Y464685
X455370
T04
X243877Y7686
X249777
X255677
X261577
X267477
X267770Y14925
X261870
X255970
X250070
X244170
X755970
X761870
X767770
X773670
X773377Y7686
X767477
X761577
X755677
X779277
X779570Y14925
X34610Y296562
X26920
X19230
X11541
X3850
Y304452
X11541
X19230
X26920
X34610
Y312342
X26920
X19230
X11541
X3850
Y320232
X11541
X19230
X26920
X34610
X477201Y321023
X484891
X492581
X500271
X507961
X515651
X523340
X531030
X538720
X546410
Y313133
X538720
X531030
X523340
X515651
X507961
X500271
X492581
X484891
X477201
Y305243
X484891
X492581
X500271
X507961
X515651
X523340
X531030
X538720
X546410
Y297353
X538720
X531030
X523340
X515651
X507961
X500271
X492581
X484891
X477201
X989038Y296768
X996728
X1004418
X1012108
X1019798
Y304658
X1012108
X1004418
X996728
X989038
Y312548
X996728
X1004418
X1012108
X1019798
Y320438
X1012108
X1004418
X996728
X989038
X267800Y583500
X261900
X256000
X250100
X244200
X244493Y590739
X250393
X256293
X262193
X268093
X756293
X762193
X768093
X773993
X773700Y583500
X767800
X761900
X756000
X779600
X779893Y590739
T05
X819681Y335685
Y345685
Y356185
Y366185
Y375685
Y385685
X307870
Y375685
Y366185
Y356185
Y345685
Y335685
T06
X935281Y464485
Y474485
Y484485
X423470
Y474485
Y464485
T07
X387759Y515274
Y527085
X399570
Y515274
X411381
Y527085
X423192
X435003
Y515274
X423192
X446814
Y527085
X899570
X911381
Y515274
X899570
X923192
Y527085
X935003
X946814
Y515274
X935003
X958625
Y527085
T08
X64370Y278831
Y292610
Y306390
Y320169
Y333949
X576181
Y320169
Y306390
Y292610
Y278831
Y347728
Y361508
Y375287
Y389067
Y402846
Y416626
Y430406
Y444185
Y457965
Y471744
Y485524
X64370
Y471744
Y457965
Y444185
Y430406
Y416626
Y402846
Y389067
Y375287
Y361508
Y347728
T09
X921260Y122436
X613973
X409449
X102162
Y212987
X409449
X613973
X921260
T10
X375948Y511573
X458625
X887759
X970436
T11
X964567Y39370
X570866
X452756
X59055
Y559055
X452756
X570866
X964567
M30
