G04*
G04 #@! TF.GenerationSoftware,Altium Limited,Altium Designer,18.0.7 (293)*
G04*
G04 Layer_Color=32896*
%FSLAX25Y25*%
%MOIN*%
G70*
G01*
G75*
%ADD52C,0.00787*%
%ADD57C,0.01000*%
G36*
X15823Y503754D02*
X16802D01*
Y503692D01*
X16863D01*
Y503754D01*
X16924D01*
Y503692D01*
X17047D01*
Y503631D01*
X17597D01*
Y503570D01*
X17720D01*
Y503509D01*
X17842D01*
Y503570D01*
X17965D01*
Y503509D01*
X18148D01*
Y503448D01*
X18515D01*
Y503387D01*
X18699D01*
Y503325D01*
X18882D01*
Y503264D01*
X19066D01*
Y503203D01*
X19250D01*
Y503142D01*
X19494D01*
Y503081D01*
X19556D01*
Y503019D01*
X19678D01*
Y502958D01*
X19739D01*
Y503019D01*
X19800D01*
Y502958D01*
X19923D01*
Y502836D01*
X19984D01*
Y502897D01*
X20045D01*
Y502836D01*
X20168D01*
Y502775D01*
X20229D01*
Y502713D01*
X20474D01*
Y502591D01*
X20718D01*
Y502469D01*
X20779D01*
Y502530D01*
X20841D01*
Y502408D01*
X21147D01*
Y502346D01*
X21024D01*
Y502285D01*
X21269D01*
Y502163D01*
X21392D01*
Y502224D01*
X21453D01*
Y502163D01*
X21514D01*
Y502040D01*
X21575D01*
Y502102D01*
X21636D01*
Y502040D01*
X21759D01*
Y501979D01*
X21881D01*
Y501918D01*
X21942D01*
Y501857D01*
X22065D01*
Y501734D01*
X22187D01*
Y501673D01*
X22309D01*
Y501551D01*
X22432D01*
Y501490D01*
X22493D01*
Y501367D01*
X22738D01*
Y501306D01*
X22677D01*
Y501245D01*
X22860D01*
Y501122D01*
X23044D01*
Y501000D01*
X23105D01*
Y500939D01*
X23289D01*
Y500878D01*
X23227D01*
Y500816D01*
X23411D01*
Y500694D01*
X23533D01*
Y500572D01*
X23656D01*
Y500449D01*
X23778D01*
Y500327D01*
X23900D01*
Y500205D01*
X24023D01*
Y500143D01*
X24084D01*
Y500021D01*
X24268D01*
Y499960D01*
X24206D01*
Y499898D01*
X24329D01*
Y499776D01*
X24451D01*
Y499654D01*
X24574D01*
Y499470D01*
X24635D01*
Y499531D01*
X24696D01*
Y499348D01*
X24757D01*
Y499287D01*
X24818D01*
Y499225D01*
X24880D01*
Y499103D01*
X25002D01*
Y498981D01*
X25063D01*
Y498919D01*
X25124D01*
Y498858D01*
X25185D01*
Y498736D01*
X25247D01*
Y498675D01*
X25308D01*
Y498552D01*
X25430D01*
Y498430D01*
X25491D01*
Y498308D01*
X25553D01*
Y498185D01*
X25614D01*
Y498124D01*
X25675D01*
Y498001D01*
X25797D01*
Y497818D01*
X25859D01*
Y497695D01*
X25920D01*
Y497512D01*
X26042D01*
Y497267D01*
X26165D01*
Y497145D01*
X26226D01*
Y496961D01*
X26348D01*
Y496716D01*
X26471D01*
Y496472D01*
X26532D01*
Y496411D01*
X26593D01*
Y496227D01*
X26654D01*
Y496104D01*
X26715D01*
Y495921D01*
X26776D01*
Y495798D01*
X26838D01*
Y495676D01*
X26899D01*
Y495493D01*
X26960D01*
Y495248D01*
X27021D01*
Y495125D01*
X27082D01*
Y494819D01*
X27144D01*
Y494575D01*
X27205D01*
Y494391D01*
X27266D01*
Y494146D01*
X27327D01*
Y493779D01*
X27389D01*
Y493228D01*
X27450D01*
Y493167D01*
X27389D01*
Y493106D01*
X27511D01*
Y492066D01*
X27572D01*
Y490964D01*
X27511D01*
Y489924D01*
X27389D01*
Y489863D01*
X27450D01*
Y489802D01*
X27389D01*
Y489251D01*
X27327D01*
Y488884D01*
X27266D01*
Y488639D01*
X27205D01*
Y488455D01*
X27144D01*
Y488210D01*
X27082D01*
Y487905D01*
X27021D01*
Y487843D01*
X26960D01*
Y487537D01*
X26899D01*
Y487415D01*
X26838D01*
Y487231D01*
X26776D01*
Y487109D01*
X26715D01*
Y486925D01*
X26654D01*
Y486803D01*
X26593D01*
Y486619D01*
X26532D01*
Y486558D01*
X26471D01*
Y486313D01*
X26348D01*
Y486069D01*
X26226D01*
Y485885D01*
X26165D01*
Y485763D01*
X26042D01*
Y485518D01*
X25920D01*
Y485334D01*
X25859D01*
Y485212D01*
X25797D01*
Y485090D01*
X25736D01*
Y485028D01*
X25675D01*
Y484906D01*
X25614D01*
Y484845D01*
X25553D01*
Y484722D01*
X25491D01*
Y484600D01*
X25430D01*
Y484539D01*
X25369D01*
Y484478D01*
X25308D01*
Y484355D01*
X25247D01*
Y484294D01*
X25185D01*
Y484233D01*
X25124D01*
Y484110D01*
X25063D01*
Y484049D01*
X25002D01*
Y483927D01*
X24880D01*
Y483805D01*
X24818D01*
Y483743D01*
X24757D01*
Y483682D01*
X24696D01*
Y483560D01*
X24574D01*
Y483376D01*
X24451D01*
Y483315D01*
X24390D01*
Y483254D01*
X24329D01*
Y483131D01*
X24206D01*
Y483009D01*
X24084D01*
Y482887D01*
X23962D01*
Y482825D01*
X23900D01*
Y482703D01*
X23778D01*
Y482642D01*
X23717D01*
Y482581D01*
X23656D01*
Y482519D01*
X23595D01*
Y482458D01*
X23533D01*
Y482336D01*
X23411D01*
Y482213D01*
X23227D01*
Y482091D01*
X23105D01*
Y482030D01*
X23044D01*
Y481969D01*
X22983D01*
Y481908D01*
X22860D01*
Y481785D01*
X22677D01*
Y481724D01*
X22615D01*
Y481663D01*
X22493D01*
Y481540D01*
X22432D01*
Y481479D01*
X22309D01*
Y481418D01*
X22248D01*
Y481357D01*
X22126D01*
Y481295D01*
X22065D01*
Y481234D01*
X21942D01*
Y481173D01*
X21881D01*
Y481112D01*
X21820D01*
Y481051D01*
X21697D01*
Y480990D01*
X21514D01*
Y480867D01*
X21269D01*
Y480745D01*
X21024D01*
Y480622D01*
X20841D01*
Y480500D01*
X20779D01*
Y480561D01*
X20718D01*
Y480500D01*
X20657D01*
Y480439D01*
X20474D01*
Y480378D01*
X20412D01*
Y480316D01*
X20229D01*
Y480255D01*
X20168D01*
Y480194D01*
X19923D01*
Y480133D01*
X19862D01*
Y480072D01*
X19678D01*
Y480011D01*
X19556D01*
Y479949D01*
X19311D01*
Y479888D01*
X19250D01*
Y479827D01*
X18944D01*
Y479766D01*
X18882D01*
Y479705D01*
X18577D01*
Y479643D01*
X18515D01*
Y479705D01*
X18454D01*
Y479643D01*
X18332D01*
Y479582D01*
X18148D01*
Y479521D01*
X17659D01*
Y479460D01*
X17597D01*
Y479398D01*
X16985D01*
Y479337D01*
X16924D01*
Y479276D01*
X16863D01*
Y479337D01*
X16802D01*
Y479276D01*
X15823D01*
Y479215D01*
X15456D01*
Y479276D01*
X15394D01*
Y479215D01*
X14721D01*
Y479276D01*
X13742D01*
Y479337D01*
X13681D01*
Y479276D01*
X13620D01*
Y479337D01*
X13559D01*
Y479398D01*
X12947D01*
Y479460D01*
X12824D01*
Y479521D01*
X12396D01*
Y479582D01*
X12212D01*
Y479643D01*
X12090D01*
Y479705D01*
X12029D01*
Y479643D01*
X11968D01*
Y479705D01*
X11784D01*
Y479766D01*
X11723D01*
Y479705D01*
X11662D01*
Y479766D01*
X11600D01*
Y479827D01*
X11294D01*
Y479888D01*
X11233D01*
Y479949D01*
X10988D01*
Y480011D01*
X10866D01*
Y480072D01*
X10683D01*
Y480133D01*
X10621D01*
Y480194D01*
X10377D01*
Y480255D01*
X10315D01*
Y480316D01*
X10132D01*
Y480378D01*
X10071D01*
Y480439D01*
X9887D01*
Y480500D01*
X9826D01*
Y480561D01*
X9765D01*
Y480500D01*
X9703D01*
Y480622D01*
X9520D01*
Y480684D01*
X9459D01*
Y480745D01*
X9275D01*
Y480867D01*
X9030D01*
Y480990D01*
X8847D01*
Y481051D01*
X8724D01*
Y481112D01*
X8663D01*
Y481173D01*
X8602D01*
Y481234D01*
X8479D01*
Y481295D01*
X8418D01*
Y481357D01*
X8296D01*
Y481418D01*
X8235D01*
Y481479D01*
X8112D01*
Y481540D01*
X8051D01*
Y481663D01*
X7929D01*
Y481724D01*
X7806D01*
Y481785D01*
X7684D01*
Y481908D01*
X7562D01*
Y481969D01*
X7500D01*
Y482030D01*
X7439D01*
Y482091D01*
X7317D01*
Y482213D01*
X7133D01*
Y482336D01*
X7011D01*
Y482458D01*
X6888D01*
Y482581D01*
X6766D01*
Y482703D01*
X6644D01*
Y482825D01*
X6583D01*
Y482887D01*
X6460D01*
Y483009D01*
X6338D01*
Y483131D01*
X6215D01*
Y483254D01*
X6154D01*
Y483315D01*
X6093D01*
Y483376D01*
X5971D01*
Y483560D01*
X5848D01*
Y483682D01*
X5787D01*
Y483743D01*
X5726D01*
Y483805D01*
X5665D01*
Y483866D01*
X5603D01*
Y483927D01*
X5542D01*
Y484049D01*
X5481D01*
Y484110D01*
X5420D01*
Y484233D01*
X5359D01*
Y484294D01*
X5297D01*
Y484355D01*
X5236D01*
Y484478D01*
X5175D01*
Y484539D01*
X5114D01*
Y484600D01*
X5053D01*
Y484722D01*
X4992D01*
Y484845D01*
X4930D01*
Y484906D01*
X4869D01*
Y485028D01*
X4808D01*
Y485090D01*
X4747D01*
Y485212D01*
X4685D01*
Y485273D01*
X4624D01*
Y485518D01*
X4502D01*
Y485763D01*
X4380D01*
Y485885D01*
X4318D01*
Y486069D01*
X4196D01*
Y486313D01*
X4074D01*
Y486558D01*
X4012D01*
Y486619D01*
X3951D01*
Y486803D01*
X3890D01*
Y486925D01*
X3829D01*
Y487109D01*
X3768D01*
Y487231D01*
X3706D01*
Y487415D01*
X3645D01*
Y487537D01*
X3584D01*
Y487782D01*
X3523D01*
Y487905D01*
X3462D01*
Y488210D01*
X3400D01*
Y488455D01*
X3339D01*
Y488578D01*
X3278D01*
Y488884D01*
X3217D01*
Y489251D01*
X3156D01*
Y489802D01*
X3033D01*
Y490964D01*
X2972D01*
Y492066D01*
X3033D01*
Y493228D01*
X3156D01*
Y493473D01*
X3094D01*
Y493534D01*
X3156D01*
Y493779D01*
X3217D01*
Y494146D01*
X3278D01*
Y494452D01*
X3339D01*
Y494575D01*
X3400D01*
Y494819D01*
X3462D01*
Y495125D01*
X3523D01*
Y495248D01*
X3584D01*
Y495493D01*
X3645D01*
Y495615D01*
X3706D01*
Y495798D01*
X3768D01*
Y495921D01*
X3829D01*
Y496104D01*
X3890D01*
Y496227D01*
X3951D01*
Y496411D01*
X4012D01*
Y496472D01*
X4074D01*
Y496716D01*
X4196D01*
Y496961D01*
X4318D01*
Y497145D01*
X4380D01*
Y497267D01*
X4502D01*
Y497512D01*
X4624D01*
Y497757D01*
X4685D01*
Y497818D01*
X4747D01*
Y497940D01*
X4808D01*
Y498001D01*
X4869D01*
Y498124D01*
X4930D01*
Y498185D01*
X4992D01*
Y498308D01*
X5053D01*
Y498430D01*
X5114D01*
Y498552D01*
X5236D01*
Y498675D01*
X5297D01*
Y498736D01*
X5359D01*
Y498858D01*
X5420D01*
Y498919D01*
X5481D01*
Y498981D01*
X5542D01*
Y499103D01*
X5603D01*
Y499164D01*
X5665D01*
Y499225D01*
X5726D01*
Y499287D01*
X5787D01*
Y499348D01*
X5848D01*
Y499470D01*
X5971D01*
Y499654D01*
X6093D01*
Y499776D01*
X6215D01*
Y499898D01*
X6338D01*
Y500021D01*
X6460D01*
Y500143D01*
X6583D01*
Y500205D01*
X6644D01*
Y500327D01*
X6766D01*
Y500449D01*
X6888D01*
Y500572D01*
X7011D01*
Y500694D01*
X7133D01*
Y500816D01*
X7317D01*
Y500939D01*
X7439D01*
Y501000D01*
X7500D01*
Y501061D01*
X7562D01*
Y501122D01*
X7684D01*
Y501245D01*
X7806D01*
Y501367D01*
X8051D01*
Y501490D01*
X8112D01*
Y501551D01*
X8235D01*
Y501612D01*
X8296D01*
Y501673D01*
X8418D01*
Y501734D01*
X8479D01*
Y501795D01*
X8602D01*
Y501857D01*
X8663D01*
Y501918D01*
X8724D01*
Y501979D01*
X8847D01*
Y502040D01*
X9030D01*
Y502163D01*
X9275D01*
Y502285D01*
X9459D01*
Y502346D01*
X9520D01*
Y502408D01*
X9703D01*
Y502530D01*
X9826D01*
Y502591D01*
X10071D01*
Y502713D01*
X10315D01*
Y502836D01*
X10621D01*
Y502897D01*
X10683D01*
Y502958D01*
X10866D01*
Y503019D01*
X10988D01*
Y503081D01*
X11172D01*
Y503142D01*
X11294D01*
Y503203D01*
X11356D01*
Y503142D01*
X11417D01*
Y503203D01*
X11600D01*
Y503264D01*
X11662D01*
Y503325D01*
X11723D01*
Y503264D01*
X11784D01*
Y503325D01*
X11968D01*
Y503387D01*
X12212D01*
Y503448D01*
X12396D01*
Y503509D01*
X12824D01*
Y503570D01*
X12947D01*
Y503631D01*
X13497D01*
Y503692D01*
X13620D01*
Y503754D01*
X13681D01*
Y503692D01*
X13742D01*
Y503754D01*
X14721D01*
Y503815D01*
X15394D01*
Y503754D01*
X15456D01*
Y503815D01*
X15823D01*
Y503754D01*
D02*
G37*
G36*
X527327Y503654D02*
X528306D01*
Y503592D01*
X528368D01*
Y503654D01*
X528429D01*
Y503592D01*
X528551D01*
Y503531D01*
X529102D01*
Y503470D01*
X529224D01*
Y503409D01*
X529347D01*
Y503470D01*
X529469D01*
Y503409D01*
X529653D01*
Y503348D01*
X530020D01*
Y503287D01*
X530203D01*
Y503225D01*
X530387D01*
Y503164D01*
X530571D01*
Y503103D01*
X530754D01*
Y503042D01*
X530999D01*
Y502981D01*
X531060D01*
Y502919D01*
X531182D01*
Y502858D01*
X531244D01*
Y502919D01*
X531305D01*
Y502858D01*
X531427D01*
Y502736D01*
X531488D01*
Y502797D01*
X531550D01*
Y502736D01*
X531672D01*
Y502675D01*
X531733D01*
Y502613D01*
X531978D01*
Y502491D01*
X532223D01*
Y502369D01*
X532284D01*
Y502430D01*
X532345D01*
Y502308D01*
X532651D01*
Y502246D01*
X532529D01*
Y502185D01*
X532773D01*
Y502063D01*
X532896D01*
Y502124D01*
X532957D01*
Y502063D01*
X533018D01*
Y501940D01*
X533079D01*
Y502001D01*
X533141D01*
Y501940D01*
X533263D01*
Y501879D01*
X533385D01*
Y501818D01*
X533447D01*
Y501757D01*
X533569D01*
Y501634D01*
X533691D01*
Y501573D01*
X533814D01*
Y501451D01*
X533936D01*
Y501390D01*
X533997D01*
Y501267D01*
X534242D01*
Y501206D01*
X534181D01*
Y501145D01*
X534365D01*
Y501022D01*
X534548D01*
Y500900D01*
X534609D01*
Y500839D01*
X534793D01*
Y500778D01*
X534732D01*
Y500716D01*
X534915D01*
Y500594D01*
X535038D01*
Y500472D01*
X535160D01*
Y500349D01*
X535282D01*
Y500227D01*
X535405D01*
Y500105D01*
X535527D01*
Y500043D01*
X535588D01*
Y499921D01*
X535772D01*
Y499860D01*
X535711D01*
Y499798D01*
X535833D01*
Y499676D01*
X535955D01*
Y499554D01*
X536078D01*
Y499370D01*
X536139D01*
Y499431D01*
X536200D01*
Y499248D01*
X536262D01*
Y499187D01*
X536323D01*
Y499125D01*
X536384D01*
Y499003D01*
X536506D01*
Y498881D01*
X536567D01*
Y498819D01*
X536629D01*
Y498758D01*
X536690D01*
Y498636D01*
X536751D01*
Y498575D01*
X536812D01*
Y498452D01*
X536935D01*
Y498330D01*
X536996D01*
Y498208D01*
X537057D01*
Y498085D01*
X537118D01*
Y498024D01*
X537179D01*
Y497901D01*
X537302D01*
Y497718D01*
X537363D01*
Y497596D01*
X537424D01*
Y497412D01*
X537547D01*
Y497167D01*
X537669D01*
Y497045D01*
X537730D01*
Y496861D01*
X537853D01*
Y496616D01*
X537975D01*
Y496372D01*
X538036D01*
Y496311D01*
X538097D01*
Y496127D01*
X538159D01*
Y496004D01*
X538220D01*
Y495821D01*
X538281D01*
Y495698D01*
X538342D01*
Y495576D01*
X538403D01*
Y495393D01*
X538464D01*
Y495148D01*
X538526D01*
Y495025D01*
X538587D01*
Y494719D01*
X538648D01*
Y494475D01*
X538709D01*
Y494291D01*
X538770D01*
Y494046D01*
X538832D01*
Y493679D01*
X538893D01*
Y493128D01*
X538954D01*
Y493067D01*
X538893D01*
Y493006D01*
X539015D01*
Y491966D01*
X539076D01*
Y490864D01*
X539015D01*
Y489824D01*
X538893D01*
Y489763D01*
X538954D01*
Y489702D01*
X538893D01*
Y489151D01*
X538832D01*
Y488784D01*
X538770D01*
Y488539D01*
X538709D01*
Y488355D01*
X538648D01*
Y488110D01*
X538587D01*
Y487805D01*
X538526D01*
Y487743D01*
X538464D01*
Y487437D01*
X538403D01*
Y487315D01*
X538342D01*
Y487131D01*
X538281D01*
Y487009D01*
X538220D01*
Y486825D01*
X538159D01*
Y486703D01*
X538097D01*
Y486519D01*
X538036D01*
Y486458D01*
X537975D01*
Y486213D01*
X537853D01*
Y485969D01*
X537730D01*
Y485785D01*
X537669D01*
Y485663D01*
X537547D01*
Y485418D01*
X537424D01*
Y485234D01*
X537363D01*
Y485112D01*
X537302D01*
Y484990D01*
X537241D01*
Y484928D01*
X537179D01*
Y484806D01*
X537118D01*
Y484745D01*
X537057D01*
Y484622D01*
X536996D01*
Y484500D01*
X536935D01*
Y484439D01*
X536873D01*
Y484378D01*
X536812D01*
Y484255D01*
X536751D01*
Y484194D01*
X536690D01*
Y484133D01*
X536629D01*
Y484011D01*
X536567D01*
Y483949D01*
X536506D01*
Y483827D01*
X536384D01*
Y483705D01*
X536323D01*
Y483643D01*
X536262D01*
Y483582D01*
X536200D01*
Y483460D01*
X536078D01*
Y483276D01*
X535955D01*
Y483215D01*
X535894D01*
Y483154D01*
X535833D01*
Y483031D01*
X535711D01*
Y482909D01*
X535588D01*
Y482787D01*
X535466D01*
Y482725D01*
X535405D01*
Y482603D01*
X535282D01*
Y482542D01*
X535221D01*
Y482481D01*
X535160D01*
Y482419D01*
X535099D01*
Y482358D01*
X535038D01*
Y482236D01*
X534915D01*
Y482113D01*
X534732D01*
Y481991D01*
X534609D01*
Y481930D01*
X534548D01*
Y481869D01*
X534487D01*
Y481808D01*
X534365D01*
Y481685D01*
X534181D01*
Y481624D01*
X534120D01*
Y481563D01*
X533997D01*
Y481440D01*
X533936D01*
Y481379D01*
X533814D01*
Y481318D01*
X533753D01*
Y481257D01*
X533630D01*
Y481195D01*
X533569D01*
Y481134D01*
X533447D01*
Y481073D01*
X533385D01*
Y481012D01*
X533324D01*
Y480951D01*
X533202D01*
Y480890D01*
X533018D01*
Y480767D01*
X532773D01*
Y480645D01*
X532529D01*
Y480522D01*
X532345D01*
Y480400D01*
X532284D01*
Y480461D01*
X532223D01*
Y480400D01*
X532162D01*
Y480339D01*
X531978D01*
Y480278D01*
X531917D01*
Y480216D01*
X531733D01*
Y480155D01*
X531672D01*
Y480094D01*
X531427D01*
Y480033D01*
X531366D01*
Y479972D01*
X531182D01*
Y479911D01*
X531060D01*
Y479849D01*
X530815D01*
Y479788D01*
X530754D01*
Y479727D01*
X530448D01*
Y479666D01*
X530387D01*
Y479604D01*
X530081D01*
Y479543D01*
X530020D01*
Y479604D01*
X529958D01*
Y479543D01*
X529836D01*
Y479482D01*
X529653D01*
Y479421D01*
X529163D01*
Y479360D01*
X529102D01*
Y479298D01*
X528490D01*
Y479237D01*
X528429D01*
Y479176D01*
X528368D01*
Y479237D01*
X528306D01*
Y479176D01*
X527327D01*
Y479115D01*
X526960D01*
Y479176D01*
X526899D01*
Y479115D01*
X526226D01*
Y479176D01*
X525247D01*
Y479237D01*
X525185D01*
Y479176D01*
X525124D01*
Y479237D01*
X525063D01*
Y479298D01*
X524451D01*
Y479360D01*
X524329D01*
Y479421D01*
X523900D01*
Y479482D01*
X523717D01*
Y479543D01*
X523594D01*
Y479604D01*
X523533D01*
Y479543D01*
X523472D01*
Y479604D01*
X523288D01*
Y479666D01*
X523227D01*
Y479604D01*
X523166D01*
Y479666D01*
X523105D01*
Y479727D01*
X522799D01*
Y479788D01*
X522738D01*
Y479849D01*
X522493D01*
Y479911D01*
X522370D01*
Y479972D01*
X522187D01*
Y480033D01*
X522126D01*
Y480094D01*
X521881D01*
Y480155D01*
X521820D01*
Y480216D01*
X521636D01*
Y480278D01*
X521575D01*
Y480339D01*
X521391D01*
Y480400D01*
X521330D01*
Y480461D01*
X521269D01*
Y480400D01*
X521208D01*
Y480522D01*
X521024D01*
Y480584D01*
X520963D01*
Y480645D01*
X520779D01*
Y480767D01*
X520535D01*
Y480890D01*
X520351D01*
Y480951D01*
X520229D01*
Y481012D01*
X520167D01*
Y481073D01*
X520106D01*
Y481134D01*
X519984D01*
Y481195D01*
X519923D01*
Y481257D01*
X519800D01*
Y481318D01*
X519739D01*
Y481379D01*
X519617D01*
Y481440D01*
X519556D01*
Y481563D01*
X519433D01*
Y481624D01*
X519311D01*
Y481685D01*
X519188D01*
Y481808D01*
X519066D01*
Y481869D01*
X519005D01*
Y481930D01*
X518944D01*
Y481991D01*
X518821D01*
Y482113D01*
X518638D01*
Y482236D01*
X518515D01*
Y482358D01*
X518393D01*
Y482481D01*
X518270D01*
Y482603D01*
X518148D01*
Y482725D01*
X518087D01*
Y482787D01*
X517965D01*
Y482909D01*
X517842D01*
Y483031D01*
X517720D01*
Y483154D01*
X517659D01*
Y483215D01*
X517597D01*
Y483276D01*
X517475D01*
Y483460D01*
X517353D01*
Y483582D01*
X517291D01*
Y483643D01*
X517230D01*
Y483705D01*
X517169D01*
Y483766D01*
X517108D01*
Y483827D01*
X517047D01*
Y483949D01*
X516985D01*
Y484011D01*
X516924D01*
Y484133D01*
X516863D01*
Y484194D01*
X516802D01*
Y484255D01*
X516741D01*
Y484378D01*
X516679D01*
Y484439D01*
X516618D01*
Y484500D01*
X516557D01*
Y484622D01*
X516496D01*
Y484745D01*
X516435D01*
Y484806D01*
X516373D01*
Y484928D01*
X516312D01*
Y484990D01*
X516251D01*
Y485112D01*
X516190D01*
Y485173D01*
X516129D01*
Y485418D01*
X516006D01*
Y485663D01*
X515884D01*
Y485785D01*
X515823D01*
Y485969D01*
X515700D01*
Y486213D01*
X515578D01*
Y486458D01*
X515517D01*
Y486519D01*
X515455D01*
Y486703D01*
X515394D01*
Y486825D01*
X515333D01*
Y487009D01*
X515272D01*
Y487131D01*
X515211D01*
Y487315D01*
X515150D01*
Y487437D01*
X515088D01*
Y487682D01*
X515027D01*
Y487805D01*
X514966D01*
Y488110D01*
X514905D01*
Y488355D01*
X514844D01*
Y488478D01*
X514782D01*
Y488784D01*
X514721D01*
Y489151D01*
X514660D01*
Y489702D01*
X514538D01*
Y490864D01*
X514476D01*
Y491966D01*
X514538D01*
Y493128D01*
X514660D01*
Y493373D01*
X514599D01*
Y493434D01*
X514660D01*
Y493679D01*
X514721D01*
Y494046D01*
X514782D01*
Y494352D01*
X514844D01*
Y494475D01*
X514905D01*
Y494719D01*
X514966D01*
Y495025D01*
X515027D01*
Y495148D01*
X515088D01*
Y495393D01*
X515150D01*
Y495515D01*
X515211D01*
Y495698D01*
X515272D01*
Y495821D01*
X515333D01*
Y496004D01*
X515394D01*
Y496127D01*
X515455D01*
Y496311D01*
X515517D01*
Y496372D01*
X515578D01*
Y496616D01*
X515700D01*
Y496861D01*
X515823D01*
Y497045D01*
X515884D01*
Y497167D01*
X516006D01*
Y497412D01*
X516129D01*
Y497657D01*
X516190D01*
Y497718D01*
X516251D01*
Y497840D01*
X516312D01*
Y497901D01*
X516373D01*
Y498024D01*
X516435D01*
Y498085D01*
X516496D01*
Y498208D01*
X516557D01*
Y498330D01*
X516618D01*
Y498452D01*
X516741D01*
Y498575D01*
X516802D01*
Y498636D01*
X516863D01*
Y498758D01*
X516924D01*
Y498819D01*
X516985D01*
Y498881D01*
X517047D01*
Y499003D01*
X517108D01*
Y499064D01*
X517169D01*
Y499125D01*
X517230D01*
Y499187D01*
X517291D01*
Y499248D01*
X517353D01*
Y499370D01*
X517475D01*
Y499554D01*
X517597D01*
Y499676D01*
X517720D01*
Y499798D01*
X517842D01*
Y499921D01*
X517965D01*
Y500043D01*
X518087D01*
Y500105D01*
X518148D01*
Y500227D01*
X518270D01*
Y500349D01*
X518393D01*
Y500472D01*
X518515D01*
Y500594D01*
X518638D01*
Y500716D01*
X518821D01*
Y500839D01*
X518944D01*
Y500900D01*
X519005D01*
Y500961D01*
X519066D01*
Y501022D01*
X519188D01*
Y501145D01*
X519311D01*
Y501267D01*
X519556D01*
Y501390D01*
X519617D01*
Y501451D01*
X519739D01*
Y501512D01*
X519800D01*
Y501573D01*
X519923D01*
Y501634D01*
X519984D01*
Y501695D01*
X520106D01*
Y501757D01*
X520167D01*
Y501818D01*
X520229D01*
Y501879D01*
X520351D01*
Y501940D01*
X520535D01*
Y502063D01*
X520779D01*
Y502185D01*
X520963D01*
Y502246D01*
X521024D01*
Y502308D01*
X521208D01*
Y502430D01*
X521330D01*
Y502491D01*
X521575D01*
Y502613D01*
X521820D01*
Y502736D01*
X522126D01*
Y502797D01*
X522187D01*
Y502858D01*
X522370D01*
Y502919D01*
X522493D01*
Y502981D01*
X522676D01*
Y503042D01*
X522799D01*
Y503103D01*
X522860D01*
Y503042D01*
X522921D01*
Y503103D01*
X523105D01*
Y503164D01*
X523166D01*
Y503225D01*
X523227D01*
Y503164D01*
X523288D01*
Y503225D01*
X523472D01*
Y503287D01*
X523717D01*
Y503348D01*
X523900D01*
Y503409D01*
X524329D01*
Y503470D01*
X524451D01*
Y503531D01*
X525002D01*
Y503592D01*
X525124D01*
Y503654D01*
X525185D01*
Y503592D01*
X525247D01*
Y503654D01*
X526226D01*
Y503715D01*
X526899D01*
Y503654D01*
X526960D01*
Y503715D01*
X527327D01*
Y503654D01*
D02*
G37*
%LPC*%
G36*
X18515Y503387D02*
X18454D01*
Y503325D01*
X18515D01*
Y503387D01*
D02*
G37*
G36*
X3156Y493167D02*
X3094D01*
Y493106D01*
X3156D01*
Y493167D01*
D02*
G37*
G36*
Y489924D02*
X3094D01*
Y489863D01*
X3156D01*
Y489924D01*
D02*
G37*
G36*
X16129Y503264D02*
X14171D01*
Y503203D01*
X13865D01*
Y503142D01*
X13253D01*
Y503081D01*
X13069D01*
Y503019D01*
X12702D01*
Y502958D01*
X12396D01*
Y502897D01*
X12212D01*
Y502836D01*
X11968D01*
Y502775D01*
X11845D01*
Y502713D01*
X11539D01*
Y502652D01*
X11417D01*
Y502591D01*
X11172D01*
Y502530D01*
X11050D01*
Y502469D01*
X10805D01*
Y502408D01*
X10744D01*
Y502346D01*
X10499D01*
Y502285D01*
X10438D01*
Y502224D01*
X10254D01*
Y502163D01*
X10193D01*
Y502102D01*
X10071D01*
Y502040D01*
X9948D01*
Y501979D01*
X9826D01*
Y501918D01*
X9703D01*
Y501857D01*
X9642D01*
Y501795D01*
X9459D01*
Y501734D01*
X9397D01*
Y501673D01*
X9214D01*
Y501612D01*
X9153D01*
Y501551D01*
X9092D01*
Y501490D01*
X8969D01*
Y501428D01*
X8908D01*
Y501367D01*
X8724D01*
Y501306D01*
X8663D01*
Y501245D01*
X8602D01*
Y501184D01*
X8479D01*
Y501122D01*
X8357D01*
Y501061D01*
X8296D01*
Y501000D01*
X8235D01*
Y500939D01*
X8174D01*
Y500878D01*
X8051D01*
Y500816D01*
X7990D01*
Y500755D01*
X7929D01*
Y500694D01*
X7806D01*
Y500633D01*
X7745D01*
Y500572D01*
X7684D01*
Y500511D01*
X7623D01*
Y500449D01*
X7500D01*
Y500388D01*
Y500327D01*
X7378D01*
Y500266D01*
Y500205D01*
X7256D01*
Y500143D01*
X7194D01*
Y500082D01*
X7133D01*
Y500021D01*
X7072D01*
Y499960D01*
X7011D01*
Y499898D01*
X6950D01*
Y499837D01*
X6888D01*
Y499776D01*
X6827D01*
Y499715D01*
X6766D01*
Y499654D01*
X6705D01*
Y499592D01*
X6644D01*
Y499531D01*
X6583D01*
Y499470D01*
Y499409D01*
X6460D01*
Y499348D01*
Y499287D01*
X6399D01*
Y499225D01*
X6338D01*
Y499164D01*
X6277D01*
Y499103D01*
X6215D01*
Y499042D01*
X6154D01*
Y498981D01*
X6093D01*
Y498919D01*
X6032D01*
Y498858D01*
Y498797D01*
X5971D01*
Y498736D01*
X5909D01*
Y498675D01*
X5848D01*
Y498613D01*
X5787D01*
Y498552D01*
Y498491D01*
X5726D01*
Y498430D01*
X5665D01*
Y498369D01*
Y498308D01*
X5603D01*
Y498246D01*
X5542D01*
Y498185D01*
Y498124D01*
X5481D01*
Y498063D01*
X5420D01*
Y498001D01*
Y497940D01*
X5359D01*
Y497879D01*
X5297D01*
Y497818D01*
Y497757D01*
X5236D01*
Y497695D01*
X5175D01*
Y497634D01*
X5114D01*
Y497573D01*
Y497512D01*
Y497451D01*
X5053D01*
Y497390D01*
X4992D01*
Y497328D01*
Y497267D01*
X4930D01*
Y497206D01*
X4869D01*
Y497145D01*
Y497084D01*
X4808D01*
Y497022D01*
Y496961D01*
X4747D01*
Y496900D01*
Y496839D01*
X4685D01*
Y496778D01*
Y496716D01*
X4624D01*
Y496655D01*
X4563D01*
Y496594D01*
Y496533D01*
Y496472D01*
X4502D01*
Y496411D01*
X4441D01*
Y496349D01*
Y496288D01*
Y496227D01*
Y496166D01*
X4380D01*
Y496104D01*
X4318D01*
Y496043D01*
Y495982D01*
Y495921D01*
X4257D01*
Y495860D01*
Y495798D01*
X4196D01*
Y495737D01*
Y495676D01*
Y495615D01*
Y495554D01*
X4135D01*
Y495493D01*
X4074D01*
Y495431D01*
Y495370D01*
Y495309D01*
Y495248D01*
X4012D01*
Y495187D01*
Y495125D01*
X3951D01*
Y495064D01*
Y495003D01*
Y494942D01*
Y494881D01*
X3890D01*
Y494819D01*
Y494758D01*
Y494697D01*
X3829D01*
Y494636D01*
Y494575D01*
Y494513D01*
Y494452D01*
X3768D01*
Y494391D01*
Y494330D01*
Y494269D01*
Y494207D01*
X3706D01*
Y494146D01*
Y494085D01*
X3645D01*
Y494024D01*
Y493963D01*
Y493901D01*
Y493840D01*
Y493779D01*
Y493718D01*
Y493657D01*
X3584D01*
Y493596D01*
Y493534D01*
Y493473D01*
X3523D01*
Y493412D01*
Y493351D01*
Y493290D01*
Y493228D01*
Y493167D01*
Y493106D01*
Y493045D01*
Y492984D01*
X3462D01*
Y492922D01*
Y492861D01*
Y492800D01*
Y492739D01*
Y492678D01*
X3400D01*
Y492616D01*
Y492555D01*
Y492494D01*
Y492433D01*
Y492372D01*
Y492310D01*
Y492249D01*
Y492188D01*
Y492127D01*
Y492066D01*
Y492004D01*
Y491943D01*
Y491882D01*
Y491821D01*
Y491760D01*
Y491699D01*
Y491637D01*
Y491576D01*
Y491515D01*
Y491454D01*
Y491393D01*
Y491331D01*
Y491270D01*
Y491209D01*
Y491148D01*
Y491087D01*
Y491025D01*
Y490964D01*
Y490903D01*
Y490842D01*
Y490781D01*
Y490719D01*
Y490658D01*
Y490597D01*
Y490536D01*
Y490475D01*
Y490413D01*
Y490352D01*
Y490291D01*
Y490230D01*
X3462D01*
Y490169D01*
Y490107D01*
Y490046D01*
Y489985D01*
Y489924D01*
Y489863D01*
Y489802D01*
X3523D01*
Y489740D01*
Y489679D01*
Y489618D01*
Y489557D01*
Y489496D01*
Y489434D01*
Y489373D01*
Y489312D01*
X3584D01*
Y489251D01*
Y489190D01*
Y489128D01*
X3645D01*
Y489067D01*
Y489006D01*
Y488945D01*
Y488884D01*
Y488822D01*
Y488761D01*
Y488700D01*
X3706D01*
Y488639D01*
Y488578D01*
X3768D01*
Y488516D01*
Y488455D01*
Y488394D01*
Y488333D01*
X3829D01*
Y488272D01*
Y488210D01*
Y488149D01*
Y488088D01*
X3890D01*
Y488027D01*
Y487966D01*
Y487905D01*
X3951D01*
Y487843D01*
Y487782D01*
Y487721D01*
Y487660D01*
X4012D01*
Y487599D01*
X4074D01*
Y487537D01*
Y487476D01*
Y487415D01*
Y487354D01*
X4135D01*
Y487292D01*
Y487231D01*
X4196D01*
Y487170D01*
Y487109D01*
Y487048D01*
X4257D01*
Y486987D01*
Y486925D01*
X4318D01*
Y486864D01*
Y486803D01*
Y486742D01*
Y486681D01*
X4380D01*
Y486619D01*
X4441D01*
Y486558D01*
Y486497D01*
Y486436D01*
X4502D01*
Y486375D01*
Y486313D01*
X4563D01*
Y486252D01*
Y486191D01*
Y486130D01*
X4624D01*
Y486069D01*
X4685D01*
Y486007D01*
Y485946D01*
X4747D01*
Y485885D01*
Y485824D01*
X4808D01*
Y485763D01*
X4869D01*
Y485702D01*
Y485640D01*
X4930D01*
Y485579D01*
Y485518D01*
X4992D01*
Y485457D01*
Y485395D01*
X5053D01*
Y485334D01*
X5114D01*
Y485273D01*
Y485212D01*
X5175D01*
Y485151D01*
X5236D01*
Y485090D01*
Y485028D01*
X5297D01*
Y484967D01*
Y484906D01*
X5359D01*
Y484845D01*
X5420D01*
Y484784D01*
Y484722D01*
X5481D01*
Y484661D01*
X5542D01*
Y484600D01*
Y484539D01*
X5603D01*
Y484478D01*
X5665D01*
Y484416D01*
Y484355D01*
X5787D01*
Y484294D01*
Y484233D01*
X5848D01*
Y484172D01*
X5909D01*
Y484110D01*
Y484049D01*
X6032D01*
Y483988D01*
Y483927D01*
X6093D01*
Y483866D01*
X6154D01*
Y483805D01*
X6215D01*
Y483743D01*
Y483682D01*
X6277D01*
Y483621D01*
X6338D01*
Y483560D01*
X6399D01*
Y483498D01*
X6460D01*
Y483437D01*
X6521D01*
Y483376D01*
X6583D01*
Y483315D01*
X6644D01*
Y483254D01*
X6705D01*
Y483192D01*
X6766D01*
Y483131D01*
X6827D01*
Y483070D01*
X6888D01*
Y483009D01*
X6950D01*
Y482948D01*
X7011D01*
Y482887D01*
X7072D01*
Y482825D01*
X7133D01*
Y482764D01*
X7194D01*
Y482703D01*
X7256D01*
Y482642D01*
X7317D01*
Y482581D01*
X7439D01*
Y482519D01*
X7500D01*
Y482458D01*
X7562D01*
Y482397D01*
X7623D01*
Y482336D01*
X7684D01*
Y482275D01*
X7745D01*
Y482213D01*
X7806D01*
Y482152D01*
X7929D01*
Y482091D01*
X7990D01*
Y482030D01*
X8051D01*
Y481969D01*
X8112D01*
Y481908D01*
X8235D01*
Y481846D01*
X8296D01*
Y481785D01*
X8418D01*
Y481724D01*
X8479D01*
Y481663D01*
X8602D01*
Y481601D01*
X8663D01*
Y481540D01*
X8785D01*
Y481479D01*
X8847D01*
Y481418D01*
X8969D01*
Y481357D01*
X9092D01*
Y481295D01*
X9153D01*
Y481234D01*
X9275D01*
Y481173D01*
X9336D01*
Y481112D01*
X9459D01*
Y481051D01*
X9581D01*
Y480990D01*
X9642D01*
Y480928D01*
X9765D01*
Y480867D01*
X9887D01*
Y480806D01*
X10009D01*
Y480745D01*
X10071D01*
Y480684D01*
X10315D01*
Y480622D01*
X10377D01*
Y480561D01*
X10621D01*
Y480500D01*
X10683D01*
Y480439D01*
X10927D01*
Y480378D01*
X10988D01*
Y480316D01*
X11233D01*
Y480255D01*
X11356D01*
Y480194D01*
X11539D01*
Y480133D01*
X11662D01*
Y480072D01*
X11906D01*
Y480011D01*
X12151D01*
Y479949D01*
X12274D01*
Y479888D01*
X12641D01*
Y479827D01*
X12824D01*
Y479766D01*
X13253D01*
Y479705D01*
X13436D01*
Y479643D01*
X14048D01*
Y479582D01*
X16190D01*
Y479643D01*
X16863D01*
Y479705D01*
X17108D01*
Y479766D01*
X17597D01*
Y479827D01*
X17781D01*
Y479888D01*
X18148D01*
Y479949D01*
X18271D01*
Y480011D01*
X18577D01*
Y480072D01*
X18760D01*
Y480133D01*
X18944D01*
Y480194D01*
X19127D01*
Y480255D01*
X19250D01*
Y480316D01*
X19494D01*
Y480378D01*
X19556D01*
Y480439D01*
X19800D01*
Y480500D01*
X19862D01*
Y480561D01*
X20106D01*
Y480622D01*
X20168D01*
Y480684D01*
X20351D01*
Y480745D01*
X20412D01*
Y480806D01*
X20596D01*
Y480867D01*
X20657D01*
Y480928D01*
X20779D01*
Y480990D01*
X20902D01*
Y481051D01*
X21024D01*
Y481112D01*
X21147D01*
Y481173D01*
X21208D01*
Y481234D01*
X21330D01*
Y481295D01*
X21392D01*
Y481357D01*
X21514D01*
Y481418D01*
X21636D01*
Y481479D01*
X21697D01*
Y481540D01*
X21820D01*
Y481601D01*
X21881D01*
Y481663D01*
X22003D01*
Y481724D01*
X22065D01*
Y481785D01*
X22187D01*
Y481846D01*
X22248D01*
Y481908D01*
X22371D01*
Y481969D01*
X22432D01*
Y482030D01*
X22493D01*
Y482091D01*
X22554D01*
Y482152D01*
X22615D01*
Y482213D01*
X22677D01*
Y482275D01*
X22799D01*
Y482336D01*
X22860D01*
Y482397D01*
X22921D01*
Y482458D01*
X22983D01*
Y482519D01*
X23044D01*
Y482581D01*
X23166D01*
Y482642D01*
Y482703D01*
X23289D01*
Y482764D01*
Y482825D01*
X23350D01*
Y482887D01*
X23472D01*
Y482948D01*
X23533D01*
Y483009D01*
X23595D01*
Y483070D01*
X23656D01*
Y483131D01*
X23717D01*
Y483192D01*
X23778D01*
Y483254D01*
X23839D01*
Y483315D01*
X23900D01*
Y483376D01*
X23962D01*
Y483437D01*
Y483498D01*
X24023D01*
Y483560D01*
X24084D01*
Y483621D01*
X24145D01*
Y483682D01*
X24206D01*
Y483743D01*
X24268D01*
Y483805D01*
X24329D01*
Y483866D01*
Y483927D01*
X24390D01*
Y483988D01*
X24451D01*
Y484049D01*
X24512D01*
Y484110D01*
Y484172D01*
X24635D01*
Y484233D01*
Y484294D01*
X24696D01*
Y484355D01*
X24757D01*
Y484416D01*
Y484478D01*
X24818D01*
Y484539D01*
X24880D01*
Y484600D01*
X24941D01*
Y484661D01*
Y484722D01*
X25002D01*
Y484784D01*
Y484845D01*
X25124D01*
Y484906D01*
Y484967D01*
X25185D01*
Y485028D01*
Y485090D01*
X25247D01*
Y485151D01*
Y485212D01*
X25308D01*
Y485273D01*
X25369D01*
Y485334D01*
Y485395D01*
X25430D01*
Y485457D01*
Y485518D01*
X25491D01*
Y485579D01*
X25553D01*
Y485640D01*
Y485702D01*
X25614D01*
Y485763D01*
X25675D01*
Y485824D01*
Y485885D01*
Y485946D01*
X25736D01*
Y486007D01*
X25797D01*
Y486069D01*
Y486130D01*
X25859D01*
Y486191D01*
Y486252D01*
Y486313D01*
X25920D01*
Y486375D01*
X25981D01*
Y486436D01*
Y486497D01*
Y486558D01*
X26042D01*
Y486619D01*
X26103D01*
Y486681D01*
Y486742D01*
Y486803D01*
Y486864D01*
X26165D01*
Y486925D01*
X26226D01*
Y486987D01*
Y487048D01*
Y487109D01*
Y487170D01*
X26287D01*
Y487231D01*
X26348D01*
Y487292D01*
Y487354D01*
Y487415D01*
Y487476D01*
Y487537D01*
X26409D01*
Y487599D01*
X26471D01*
Y487660D01*
Y487721D01*
Y487782D01*
Y487843D01*
Y487905D01*
X26532D01*
Y487966D01*
X26593D01*
Y488027D01*
Y488088D01*
Y488149D01*
Y488210D01*
Y488272D01*
X26654D01*
Y488333D01*
Y488394D01*
Y488455D01*
X26715D01*
Y488516D01*
Y488578D01*
Y488639D01*
Y488700D01*
X26776D01*
Y488761D01*
Y488822D01*
Y488884D01*
Y488945D01*
Y489006D01*
X26838D01*
Y489067D01*
Y489128D01*
Y489190D01*
X26899D01*
Y489251D01*
Y489312D01*
Y489373D01*
Y489434D01*
Y489496D01*
Y489557D01*
Y489618D01*
Y489679D01*
X26960D01*
Y489740D01*
Y489802D01*
Y489863D01*
Y489924D01*
X27021D01*
Y489985D01*
Y490046D01*
Y490107D01*
Y490169D01*
Y490230D01*
Y490291D01*
Y490352D01*
Y490413D01*
Y490475D01*
Y490536D01*
Y490597D01*
Y490658D01*
Y490719D01*
Y490781D01*
Y490842D01*
Y490903D01*
Y490964D01*
Y491025D01*
Y491087D01*
Y491148D01*
Y491209D01*
Y491270D01*
X27082D01*
Y491331D01*
Y491393D01*
Y491454D01*
Y491515D01*
X27021D01*
Y491576D01*
Y491637D01*
Y491699D01*
Y491760D01*
Y491821D01*
Y491882D01*
Y491943D01*
Y492004D01*
Y492066D01*
Y492127D01*
Y492188D01*
Y492249D01*
Y492310D01*
Y492372D01*
Y492433D01*
Y492494D01*
Y492555D01*
Y492616D01*
Y492678D01*
Y492739D01*
Y492800D01*
Y492861D01*
X26960D01*
Y492922D01*
Y492984D01*
Y493045D01*
Y493106D01*
X26899D01*
Y493167D01*
Y493228D01*
Y493290D01*
Y493351D01*
Y493412D01*
Y493473D01*
Y493534D01*
Y493596D01*
Y493657D01*
X26838D01*
Y493718D01*
Y493779D01*
Y493840D01*
X26776D01*
Y493901D01*
Y493963D01*
Y494024D01*
Y494085D01*
Y494146D01*
X26715D01*
Y494207D01*
Y494269D01*
Y494330D01*
Y494391D01*
X26654D01*
Y494452D01*
Y494513D01*
X26593D01*
Y494575D01*
Y494636D01*
Y494697D01*
Y494758D01*
Y494819D01*
X26532D01*
Y494881D01*
Y494942D01*
X26471D01*
Y495003D01*
Y495064D01*
Y495125D01*
Y495187D01*
Y495248D01*
X26409D01*
Y495309D01*
X26348D01*
Y495370D01*
Y495431D01*
Y495493D01*
Y495554D01*
X26287D01*
Y495615D01*
Y495676D01*
X26226D01*
Y495737D01*
Y495798D01*
Y495860D01*
Y495921D01*
X26165D01*
Y495982D01*
X26103D01*
Y496043D01*
Y496104D01*
Y496166D01*
Y496227D01*
X26042D01*
Y496288D01*
X25981D01*
Y496349D01*
Y496411D01*
Y496472D01*
X25920D01*
Y496533D01*
X25859D01*
Y496594D01*
Y496655D01*
Y496716D01*
X25797D01*
Y496778D01*
Y496839D01*
X25736D01*
Y496900D01*
X25675D01*
Y496961D01*
Y497022D01*
X25614D01*
Y497084D01*
X25553D01*
Y497145D01*
Y497206D01*
Y497267D01*
X25491D01*
Y497328D01*
X25430D01*
Y497390D01*
Y497451D01*
X25369D01*
Y497512D01*
X25308D01*
Y497573D01*
Y497634D01*
X25247D01*
Y497695D01*
Y497757D01*
X25185D01*
Y497818D01*
X25124D01*
Y497879D01*
Y497940D01*
X25063D01*
Y498001D01*
X25002D01*
Y498063D01*
Y498124D01*
X24941D01*
Y498185D01*
X24880D01*
Y498246D01*
Y498308D01*
X24818D01*
Y498369D01*
X24757D01*
Y498430D01*
Y498491D01*
X24696D01*
Y498552D01*
X24635D01*
Y498613D01*
Y498675D01*
X24512D01*
Y498736D01*
Y498797D01*
X24451D01*
Y498858D01*
X24390D01*
Y498919D01*
X24329D01*
Y498981D01*
X24268D01*
Y499042D01*
X24206D01*
Y499103D01*
Y499164D01*
X24145D01*
Y499225D01*
X24084D01*
Y499287D01*
X24023D01*
Y499348D01*
X23962D01*
Y499409D01*
X23900D01*
Y499470D01*
X23839D01*
Y499531D01*
X23778D01*
Y499592D01*
X23717D01*
Y499654D01*
X23656D01*
Y499715D01*
Y499776D01*
X23533D01*
Y499837D01*
X23472D01*
Y499898D01*
X23411D01*
Y499960D01*
X23350D01*
Y500021D01*
X23289D01*
Y500082D01*
X23227D01*
Y500143D01*
X23166D01*
Y500205D01*
X23105D01*
Y500266D01*
X23044D01*
Y500327D01*
X22983D01*
Y500388D01*
X22921D01*
Y500449D01*
X22799D01*
Y500511D01*
X22738D01*
Y500572D01*
X22677D01*
Y500633D01*
X22615D01*
Y500694D01*
X22493D01*
Y500755D01*
X22432D01*
Y500816D01*
X22371D01*
Y500878D01*
X22248D01*
Y500939D01*
X22187D01*
Y501000D01*
X22126D01*
Y501061D01*
X22003D01*
Y501122D01*
X21942D01*
Y501184D01*
X21881D01*
Y501245D01*
X21759D01*
Y501306D01*
X21697D01*
Y501367D01*
X21575D01*
Y501428D01*
X21453D01*
Y501490D01*
X21392D01*
Y501551D01*
X21269D01*
Y501612D01*
X21208D01*
Y501673D01*
X21086D01*
Y501734D01*
X21024D01*
Y501795D01*
X20841D01*
Y501857D01*
X20779D01*
Y501918D01*
X20596D01*
Y501979D01*
X20535D01*
Y502040D01*
X20412D01*
Y502102D01*
X20290D01*
Y502163D01*
X20168D01*
Y502224D01*
X19984D01*
Y502285D01*
X19923D01*
Y502346D01*
X19678D01*
Y502408D01*
X19617D01*
Y502469D01*
X19372D01*
Y502530D01*
X19311D01*
Y502591D01*
X19066D01*
Y502652D01*
X18882D01*
Y502713D01*
X18577D01*
Y502775D01*
X18515D01*
Y502836D01*
X18148D01*
Y502897D01*
X17965D01*
Y502958D01*
X17720D01*
Y503019D01*
X17291D01*
Y503081D01*
X17108D01*
Y503142D01*
X16374D01*
Y503203D01*
X16129D01*
Y503264D01*
D02*
G37*
%LPD*%
G36*
X21330Y498185D02*
X21269D01*
Y497818D01*
X21208D01*
Y497451D01*
X21147D01*
Y497206D01*
X21086D01*
Y496961D01*
X21024D01*
Y496839D01*
X20963D01*
Y496594D01*
X20902D01*
Y496472D01*
X20841D01*
Y496288D01*
X20779D01*
Y496166D01*
X20718D01*
Y496043D01*
X20657D01*
Y495921D01*
X20596D01*
Y495860D01*
X20535D01*
Y495737D01*
X20474D01*
Y495676D01*
X20412D01*
Y495493D01*
X20351D01*
Y495431D01*
X20290D01*
Y495370D01*
X20229D01*
Y495248D01*
X20168D01*
Y495187D01*
X20106D01*
Y495125D01*
X20045D01*
Y495064D01*
X19984D01*
Y494942D01*
X19923D01*
Y494881D01*
X19862D01*
Y494819D01*
X19800D01*
Y494758D01*
X19739D01*
Y494636D01*
X19617D01*
Y494513D01*
X19494D01*
Y494391D01*
X19433D01*
Y494330D01*
X19311D01*
Y494207D01*
X19188D01*
Y494146D01*
X19127D01*
Y494085D01*
X19005D01*
Y493963D01*
X18882D01*
Y493901D01*
X18821D01*
Y493840D01*
X18699D01*
Y493779D01*
X18638D01*
Y493718D01*
X18577D01*
Y493657D01*
X18454D01*
Y493596D01*
X18332D01*
Y493534D01*
X18209D01*
Y493473D01*
X18087D01*
Y493412D01*
X17965D01*
Y493351D01*
X17842D01*
Y493290D01*
X17659D01*
Y493228D01*
X17536D01*
Y493167D01*
X17353D01*
Y493106D01*
X17230D01*
Y493045D01*
X16741D01*
Y492984D01*
X16618D01*
Y492922D01*
X16557D01*
Y492739D01*
X16618D01*
Y492678D01*
X17108D01*
Y492739D01*
X21208D01*
Y492800D01*
X21269D01*
Y492739D01*
X21330D01*
Y490475D01*
X16985D01*
Y490536D01*
X16802D01*
Y490475D01*
X16618D01*
Y490291D01*
X16680D01*
Y490230D01*
X16741D01*
Y490169D01*
X16985D01*
Y490107D01*
X17353D01*
Y490046D01*
X17414D01*
Y489985D01*
X17659D01*
Y489924D01*
X17720D01*
Y489863D01*
X17903D01*
Y489802D01*
X17965D01*
Y489740D01*
X18148D01*
Y489679D01*
X18271D01*
Y489618D01*
X18393D01*
Y489557D01*
X18454D01*
Y489496D01*
X18577D01*
Y489434D01*
X18638D01*
Y489373D01*
X18760D01*
Y489312D01*
X18821D01*
Y489251D01*
X18944D01*
Y489190D01*
X19005D01*
Y489128D01*
X19066D01*
Y489067D01*
X19188D01*
Y489006D01*
X19250D01*
Y488945D01*
X19311D01*
Y488884D01*
X19372D01*
Y488822D01*
X19433D01*
Y488761D01*
X19494D01*
Y488700D01*
X19556D01*
Y488639D01*
X19617D01*
Y488578D01*
X19678D01*
Y488516D01*
X19739D01*
Y488455D01*
X19800D01*
Y488394D01*
X19862D01*
Y488272D01*
X19984D01*
Y488149D01*
X20045D01*
Y488088D01*
X20106D01*
Y487966D01*
X20168D01*
Y487905D01*
X20229D01*
Y487843D01*
X20290D01*
Y487721D01*
X20351D01*
Y487660D01*
X20412D01*
Y487537D01*
X20474D01*
Y487476D01*
X20535D01*
Y487292D01*
X20596D01*
Y487231D01*
X20657D01*
Y487109D01*
X20718D01*
Y486987D01*
X20779D01*
Y486864D01*
X20841D01*
Y486742D01*
X20902D01*
Y486619D01*
X20963D01*
Y486375D01*
X21024D01*
Y486252D01*
X21086D01*
Y485946D01*
X21147D01*
Y485702D01*
X21208D01*
Y485334D01*
X21269D01*
Y484967D01*
X21330D01*
Y484478D01*
X19005D01*
Y485090D01*
X18944D01*
Y485273D01*
X18882D01*
Y485579D01*
X18821D01*
Y485640D01*
X18760D01*
Y485885D01*
X18699D01*
Y485946D01*
X18638D01*
Y486069D01*
X18577D01*
Y486191D01*
X18515D01*
Y486313D01*
X18454D01*
Y486436D01*
X18393D01*
Y486497D01*
X18332D01*
Y486619D01*
X18271D01*
Y486681D01*
X18209D01*
Y486742D01*
X18148D01*
Y486803D01*
X18087D01*
Y486864D01*
X18026D01*
Y486925D01*
X17965D01*
Y486987D01*
X17903D01*
Y487048D01*
X17842D01*
Y487109D01*
X17781D01*
Y487170D01*
X17720D01*
Y487231D01*
X17659D01*
Y487292D01*
X17536D01*
Y487415D01*
X17414D01*
Y487476D01*
X17353D01*
Y487537D01*
X17230D01*
Y487599D01*
X17108D01*
Y487660D01*
X17047D01*
Y487721D01*
X16924D01*
Y487782D01*
X16802D01*
Y487843D01*
X16680D01*
Y487905D01*
X16435D01*
Y484478D01*
X14109D01*
Y487905D01*
X13926D01*
Y487843D01*
X13742D01*
Y487782D01*
X13681D01*
Y487721D01*
X13497D01*
Y487660D01*
X13436D01*
Y487599D01*
X13314D01*
Y487537D01*
X13253D01*
Y487476D01*
X13192D01*
Y487415D01*
X13069D01*
Y487354D01*
X13008D01*
Y487292D01*
X12947D01*
Y487231D01*
X12886D01*
Y487170D01*
X12763D01*
Y487109D01*
X12702D01*
Y487048D01*
X12641D01*
Y486987D01*
X12580D01*
Y486925D01*
X12518D01*
Y486864D01*
X12457D01*
Y486803D01*
X12396D01*
Y486681D01*
X12335D01*
Y486619D01*
X12274D01*
Y486497D01*
X12212D01*
Y486436D01*
X12151D01*
Y486313D01*
X12090D01*
Y486252D01*
X12029D01*
Y486130D01*
X11968D01*
Y486069D01*
X11906D01*
Y485885D01*
X11845D01*
Y485763D01*
X11784D01*
Y485579D01*
X11723D01*
Y485457D01*
X11662D01*
Y485151D01*
X11600D01*
Y484784D01*
X11539D01*
Y484478D01*
X9214D01*
Y484600D01*
X9275D01*
Y485090D01*
X9336D01*
Y485640D01*
X9397D01*
Y485885D01*
X9459D01*
Y486069D01*
X9520D01*
Y486252D01*
X9581D01*
Y486497D01*
X9642D01*
Y486619D01*
X9703D01*
Y486803D01*
X9765D01*
Y486864D01*
X9826D01*
Y487048D01*
X9887D01*
Y487170D01*
X9948D01*
Y487292D01*
X10009D01*
Y487354D01*
X10071D01*
Y487476D01*
X10132D01*
Y487599D01*
X10193D01*
Y487660D01*
X10254D01*
Y487782D01*
X10315D01*
Y487843D01*
X10377D01*
Y487966D01*
X10438D01*
Y488027D01*
X10499D01*
Y488149D01*
X10560D01*
Y488210D01*
X10621D01*
Y488272D01*
X10683D01*
Y488333D01*
X10744D01*
Y488394D01*
X10805D01*
Y488455D01*
X10866D01*
Y488516D01*
X10927D01*
Y488578D01*
X10988D01*
Y488639D01*
X11050D01*
Y488700D01*
X11111D01*
Y488761D01*
X11172D01*
Y488822D01*
X11233D01*
Y488884D01*
X11294D01*
Y488945D01*
X11356D01*
Y489006D01*
X11417D01*
Y489067D01*
X11478D01*
Y489128D01*
X11539D01*
Y489190D01*
X11662D01*
Y489251D01*
X11723D01*
Y489312D01*
X11784D01*
Y489373D01*
X11906D01*
Y489434D01*
X11968D01*
Y489496D01*
X12090D01*
Y489557D01*
X12151D01*
Y489618D01*
X12335D01*
Y489679D01*
X12396D01*
Y489740D01*
X12580D01*
Y489802D01*
X12702D01*
Y489863D01*
X12886D01*
Y489924D01*
X12947D01*
Y489985D01*
X13130D01*
Y490046D01*
X13253D01*
Y490107D01*
X13559D01*
Y490169D01*
X13926D01*
Y490291D01*
X13987D01*
Y490475D01*
X13865D01*
Y490536D01*
X13559D01*
Y490475D01*
X9275D01*
Y490536D01*
X9214D01*
Y490597D01*
X9275D01*
Y492739D01*
X13497D01*
Y492678D01*
X13926D01*
Y492800D01*
X13987D01*
Y492922D01*
X13926D01*
Y492984D01*
X13865D01*
Y493045D01*
X13375D01*
Y493106D01*
X13253D01*
Y493167D01*
X13008D01*
Y493228D01*
X12947D01*
Y493290D01*
X12763D01*
Y493351D01*
X12641D01*
Y493412D01*
X12518D01*
Y493473D01*
X12396D01*
Y493534D01*
X12212D01*
Y493596D01*
X12151D01*
Y493657D01*
X12029D01*
Y493718D01*
X11968D01*
Y493779D01*
X11845D01*
Y493840D01*
X11784D01*
Y493901D01*
X11723D01*
Y493963D01*
X11600D01*
Y494024D01*
X11539D01*
Y494085D01*
X11478D01*
Y494146D01*
X11417D01*
Y494207D01*
X11294D01*
Y494330D01*
X11172D01*
Y494391D01*
X11111D01*
Y494452D01*
X11050D01*
Y494513D01*
X10988D01*
Y494575D01*
X10927D01*
Y494636D01*
X10866D01*
Y494697D01*
X10805D01*
Y494758D01*
X10744D01*
Y494819D01*
X10683D01*
Y494881D01*
X10621D01*
Y495003D01*
X10560D01*
Y495064D01*
X10499D01*
Y495125D01*
X10438D01*
Y495187D01*
X10377D01*
Y495370D01*
X10254D01*
Y495554D01*
X10132D01*
Y495737D01*
X10071D01*
Y495798D01*
X10009D01*
Y495921D01*
X9948D01*
Y496043D01*
X9887D01*
Y496104D01*
X9826D01*
Y496288D01*
X9765D01*
Y496349D01*
X9703D01*
Y496594D01*
X9642D01*
Y496716D01*
X9581D01*
Y496961D01*
X9520D01*
Y497084D01*
X9459D01*
Y497267D01*
X9397D01*
Y497573D01*
X9336D01*
Y498124D01*
X9275D01*
Y498736D01*
X11539D01*
Y498430D01*
X11600D01*
Y498001D01*
X11662D01*
Y497757D01*
X11723D01*
Y497634D01*
X11784D01*
Y497390D01*
X11845D01*
Y497267D01*
X11906D01*
Y497145D01*
X11968D01*
Y497084D01*
X12029D01*
Y496961D01*
X12090D01*
Y496839D01*
X12151D01*
Y496716D01*
X12212D01*
Y496655D01*
X12274D01*
Y496533D01*
X12335D01*
Y496472D01*
X12396D01*
Y496411D01*
X12457D01*
Y496349D01*
X12518D01*
Y496288D01*
X12580D01*
Y496227D01*
X12641D01*
Y496166D01*
X12702D01*
Y496104D01*
X12763D01*
Y496043D01*
X12824D01*
Y495982D01*
X12886D01*
Y495921D01*
X12947D01*
Y495860D01*
X13069D01*
Y495798D01*
X13130D01*
Y495737D01*
X13253D01*
Y495615D01*
X13375D01*
Y495554D01*
X13497D01*
Y495493D01*
X13620D01*
Y495431D01*
X13742D01*
Y495370D01*
X13865D01*
Y495309D01*
X14109D01*
Y495431D01*
X14171D01*
Y495493D01*
X14109D01*
Y498430D01*
X14171D01*
Y498491D01*
X14109D01*
Y498736D01*
X16435D01*
Y495309D01*
X16741D01*
Y495370D01*
X16802D01*
Y495431D01*
X16985D01*
Y495493D01*
X17108D01*
Y495554D01*
X17169D01*
Y495615D01*
X17291D01*
Y495676D01*
X17353D01*
Y495737D01*
X17475D01*
Y495798D01*
X17536D01*
Y495860D01*
X17597D01*
Y495921D01*
X17720D01*
Y495982D01*
X17781D01*
Y496043D01*
X17842D01*
Y496104D01*
X17903D01*
Y496166D01*
X17965D01*
Y496227D01*
X18026D01*
Y496288D01*
X18087D01*
Y496349D01*
X18148D01*
Y496411D01*
X18209D01*
Y496533D01*
X18271D01*
Y496594D01*
X18332D01*
Y496716D01*
X18393D01*
Y496778D01*
X18454D01*
Y496900D01*
X18515D01*
Y496961D01*
X18577D01*
Y497084D01*
X18638D01*
Y497206D01*
X18699D01*
Y497328D01*
X18760D01*
Y497512D01*
X18821D01*
Y497634D01*
X18882D01*
Y497879D01*
X18944D01*
Y498063D01*
X19005D01*
Y498736D01*
X21330D01*
Y498185D01*
D02*
G37*
%LPC*%
G36*
X530020Y503287D02*
X529958D01*
Y503225D01*
X530020D01*
Y503287D01*
D02*
G37*
G36*
X514660Y493067D02*
X514599D01*
Y493006D01*
X514660D01*
Y493067D01*
D02*
G37*
G36*
Y489824D02*
X514599D01*
Y489763D01*
X514660D01*
Y489824D01*
D02*
G37*
G36*
X527633Y503164D02*
X525675D01*
Y503103D01*
X525369D01*
Y503042D01*
X524757D01*
Y502981D01*
X524573D01*
Y502919D01*
X524206D01*
Y502858D01*
X523900D01*
Y502797D01*
X523717D01*
Y502736D01*
X523472D01*
Y502675D01*
X523350D01*
Y502613D01*
X523044D01*
Y502552D01*
X522921D01*
Y502491D01*
X522676D01*
Y502430D01*
X522554D01*
Y502369D01*
X522309D01*
Y502308D01*
X522248D01*
Y502246D01*
X522003D01*
Y502185D01*
X521942D01*
Y502124D01*
X521759D01*
Y502063D01*
X521697D01*
Y502001D01*
X521575D01*
Y501940D01*
X521453D01*
Y501879D01*
X521330D01*
Y501818D01*
X521208D01*
Y501757D01*
X521147D01*
Y501695D01*
X520963D01*
Y501634D01*
X520902D01*
Y501573D01*
X520718D01*
Y501512D01*
X520657D01*
Y501451D01*
X520596D01*
Y501390D01*
X520473D01*
Y501328D01*
X520412D01*
Y501267D01*
X520229D01*
Y501206D01*
X520167D01*
Y501145D01*
X520106D01*
Y501084D01*
X519984D01*
Y501022D01*
X519862D01*
Y500961D01*
X519800D01*
Y500900D01*
X519739D01*
Y500839D01*
X519678D01*
Y500778D01*
X519556D01*
Y500716D01*
X519494D01*
Y500655D01*
X519433D01*
Y500594D01*
X519311D01*
Y500533D01*
X519250D01*
Y500472D01*
X519188D01*
Y500411D01*
X519127D01*
Y500349D01*
X519005D01*
Y500288D01*
Y500227D01*
X518882D01*
Y500166D01*
Y500105D01*
X518760D01*
Y500043D01*
X518699D01*
Y499982D01*
X518638D01*
Y499921D01*
X518576D01*
Y499860D01*
X518515D01*
Y499798D01*
X518454D01*
Y499737D01*
X518393D01*
Y499676D01*
X518332D01*
Y499615D01*
X518270D01*
Y499554D01*
X518209D01*
Y499493D01*
X518148D01*
Y499431D01*
X518087D01*
Y499370D01*
Y499309D01*
X517965D01*
Y499248D01*
Y499187D01*
X517903D01*
Y499125D01*
X517842D01*
Y499064D01*
X517781D01*
Y499003D01*
X517720D01*
Y498942D01*
X517659D01*
Y498881D01*
X517597D01*
Y498819D01*
X517536D01*
Y498758D01*
Y498697D01*
X517475D01*
Y498636D01*
X517414D01*
Y498575D01*
X517353D01*
Y498513D01*
X517291D01*
Y498452D01*
Y498391D01*
X517230D01*
Y498330D01*
X517169D01*
Y498269D01*
Y498208D01*
X517108D01*
Y498146D01*
X517047D01*
Y498085D01*
Y498024D01*
X516985D01*
Y497963D01*
X516924D01*
Y497901D01*
Y497840D01*
X516863D01*
Y497779D01*
X516802D01*
Y497718D01*
Y497657D01*
X516741D01*
Y497596D01*
X516679D01*
Y497534D01*
X516618D01*
Y497473D01*
Y497412D01*
Y497351D01*
X516557D01*
Y497290D01*
X516496D01*
Y497228D01*
Y497167D01*
X516435D01*
Y497106D01*
X516373D01*
Y497045D01*
Y496984D01*
X516312D01*
Y496922D01*
Y496861D01*
X516251D01*
Y496800D01*
Y496739D01*
X516190D01*
Y496678D01*
Y496616D01*
X516129D01*
Y496555D01*
X516068D01*
Y496494D01*
Y496433D01*
Y496372D01*
X516006D01*
Y496311D01*
X515945D01*
Y496249D01*
Y496188D01*
Y496127D01*
Y496066D01*
X515884D01*
Y496004D01*
X515823D01*
Y495943D01*
Y495882D01*
Y495821D01*
X515762D01*
Y495760D01*
Y495698D01*
X515700D01*
Y495637D01*
Y495576D01*
Y495515D01*
Y495454D01*
X515639D01*
Y495393D01*
X515578D01*
Y495331D01*
Y495270D01*
Y495209D01*
Y495148D01*
X515517D01*
Y495087D01*
Y495025D01*
X515455D01*
Y494964D01*
Y494903D01*
Y494842D01*
Y494781D01*
X515394D01*
Y494719D01*
Y494658D01*
Y494597D01*
X515333D01*
Y494536D01*
Y494475D01*
Y494413D01*
Y494352D01*
X515272D01*
Y494291D01*
Y494230D01*
Y494169D01*
Y494107D01*
X515211D01*
Y494046D01*
Y493985D01*
X515150D01*
Y493924D01*
Y493863D01*
Y493801D01*
Y493740D01*
Y493679D01*
Y493618D01*
Y493557D01*
X515088D01*
Y493496D01*
Y493434D01*
Y493373D01*
X515027D01*
Y493312D01*
Y493251D01*
Y493190D01*
Y493128D01*
Y493067D01*
Y493006D01*
Y492945D01*
Y492884D01*
X514966D01*
Y492822D01*
Y492761D01*
Y492700D01*
Y492639D01*
Y492578D01*
X514905D01*
Y492516D01*
Y492455D01*
Y492394D01*
Y492333D01*
Y492272D01*
Y492210D01*
Y492149D01*
Y492088D01*
Y492027D01*
Y491966D01*
Y491904D01*
Y491843D01*
Y491782D01*
Y491721D01*
Y491660D01*
Y491599D01*
Y491537D01*
Y491476D01*
Y491415D01*
Y491354D01*
Y491292D01*
Y491231D01*
Y491170D01*
Y491109D01*
Y491048D01*
Y490987D01*
Y490925D01*
Y490864D01*
Y490803D01*
Y490742D01*
Y490681D01*
Y490619D01*
Y490558D01*
Y490497D01*
Y490436D01*
Y490375D01*
Y490313D01*
Y490252D01*
Y490191D01*
Y490130D01*
X514966D01*
Y490069D01*
Y490007D01*
Y489946D01*
Y489885D01*
Y489824D01*
Y489763D01*
Y489702D01*
X515027D01*
Y489640D01*
Y489579D01*
Y489518D01*
Y489457D01*
Y489396D01*
Y489334D01*
Y489273D01*
Y489212D01*
X515088D01*
Y489151D01*
Y489090D01*
Y489028D01*
X515150D01*
Y488967D01*
Y488906D01*
Y488845D01*
Y488784D01*
Y488722D01*
Y488661D01*
Y488600D01*
X515211D01*
Y488539D01*
Y488478D01*
X515272D01*
Y488416D01*
Y488355D01*
Y488294D01*
Y488233D01*
X515333D01*
Y488172D01*
Y488110D01*
Y488049D01*
Y487988D01*
X515394D01*
Y487927D01*
Y487866D01*
Y487805D01*
X515455D01*
Y487743D01*
Y487682D01*
Y487621D01*
Y487560D01*
X515517D01*
Y487499D01*
X515578D01*
Y487437D01*
Y487376D01*
Y487315D01*
Y487254D01*
X515639D01*
Y487192D01*
Y487131D01*
X515700D01*
Y487070D01*
Y487009D01*
Y486948D01*
X515762D01*
Y486887D01*
Y486825D01*
X515823D01*
Y486764D01*
Y486703D01*
Y486642D01*
Y486581D01*
X515884D01*
Y486519D01*
X515945D01*
Y486458D01*
Y486397D01*
Y486336D01*
X516006D01*
Y486275D01*
Y486213D01*
X516068D01*
Y486152D01*
Y486091D01*
Y486030D01*
X516129D01*
Y485969D01*
X516190D01*
Y485908D01*
Y485846D01*
X516251D01*
Y485785D01*
Y485724D01*
X516312D01*
Y485663D01*
X516373D01*
Y485602D01*
Y485540D01*
X516435D01*
Y485479D01*
Y485418D01*
X516496D01*
Y485357D01*
Y485295D01*
X516557D01*
Y485234D01*
X516618D01*
Y485173D01*
Y485112D01*
X516679D01*
Y485051D01*
X516741D01*
Y484990D01*
Y484928D01*
X516802D01*
Y484867D01*
Y484806D01*
X516863D01*
Y484745D01*
X516924D01*
Y484684D01*
Y484622D01*
X516985D01*
Y484561D01*
X517047D01*
Y484500D01*
Y484439D01*
X517108D01*
Y484378D01*
X517169D01*
Y484316D01*
Y484255D01*
X517291D01*
Y484194D01*
Y484133D01*
X517353D01*
Y484072D01*
X517414D01*
Y484011D01*
Y483949D01*
X517536D01*
Y483888D01*
Y483827D01*
X517597D01*
Y483766D01*
X517659D01*
Y483705D01*
X517720D01*
Y483643D01*
Y483582D01*
X517781D01*
Y483521D01*
X517842D01*
Y483460D01*
X517903D01*
Y483398D01*
X517965D01*
Y483337D01*
X518026D01*
Y483276D01*
X518087D01*
Y483215D01*
X518148D01*
Y483154D01*
X518209D01*
Y483092D01*
X518270D01*
Y483031D01*
X518332D01*
Y482970D01*
X518393D01*
Y482909D01*
X518454D01*
Y482848D01*
X518515D01*
Y482787D01*
X518576D01*
Y482725D01*
X518638D01*
Y482664D01*
X518699D01*
Y482603D01*
X518760D01*
Y482542D01*
X518821D01*
Y482481D01*
X518944D01*
Y482419D01*
X519005D01*
Y482358D01*
X519066D01*
Y482297D01*
X519127D01*
Y482236D01*
X519188D01*
Y482175D01*
X519250D01*
Y482113D01*
X519311D01*
Y482052D01*
X519433D01*
Y481991D01*
X519494D01*
Y481930D01*
X519556D01*
Y481869D01*
X519617D01*
Y481808D01*
X519739D01*
Y481746D01*
X519800D01*
Y481685D01*
X519923D01*
Y481624D01*
X519984D01*
Y481563D01*
X520106D01*
Y481501D01*
X520167D01*
Y481440D01*
X520290D01*
Y481379D01*
X520351D01*
Y481318D01*
X520473D01*
Y481257D01*
X520596D01*
Y481195D01*
X520657D01*
Y481134D01*
X520779D01*
Y481073D01*
X520841D01*
Y481012D01*
X520963D01*
Y480951D01*
X521085D01*
Y480890D01*
X521147D01*
Y480828D01*
X521269D01*
Y480767D01*
X521391D01*
Y480706D01*
X521514D01*
Y480645D01*
X521575D01*
Y480584D01*
X521820D01*
Y480522D01*
X521881D01*
Y480461D01*
X522126D01*
Y480400D01*
X522187D01*
Y480339D01*
X522432D01*
Y480278D01*
X522493D01*
Y480216D01*
X522738D01*
Y480155D01*
X522860D01*
Y480094D01*
X523044D01*
Y480033D01*
X523166D01*
Y479972D01*
X523411D01*
Y479911D01*
X523656D01*
Y479849D01*
X523778D01*
Y479788D01*
X524145D01*
Y479727D01*
X524329D01*
Y479666D01*
X524757D01*
Y479604D01*
X524941D01*
Y479543D01*
X525553D01*
Y479482D01*
X527694D01*
Y479543D01*
X528368D01*
Y479604D01*
X528612D01*
Y479666D01*
X529102D01*
Y479727D01*
X529285D01*
Y479788D01*
X529653D01*
Y479849D01*
X529775D01*
Y479911D01*
X530081D01*
Y479972D01*
X530265D01*
Y480033D01*
X530448D01*
Y480094D01*
X530632D01*
Y480155D01*
X530754D01*
Y480216D01*
X530999D01*
Y480278D01*
X531060D01*
Y480339D01*
X531305D01*
Y480400D01*
X531366D01*
Y480461D01*
X531611D01*
Y480522D01*
X531672D01*
Y480584D01*
X531855D01*
Y480645D01*
X531917D01*
Y480706D01*
X532100D01*
Y480767D01*
X532162D01*
Y480828D01*
X532284D01*
Y480890D01*
X532406D01*
Y480951D01*
X532529D01*
Y481012D01*
X532651D01*
Y481073D01*
X532712D01*
Y481134D01*
X532835D01*
Y481195D01*
X532896D01*
Y481257D01*
X533018D01*
Y481318D01*
X533141D01*
Y481379D01*
X533202D01*
Y481440D01*
X533324D01*
Y481501D01*
X533385D01*
Y481563D01*
X533508D01*
Y481624D01*
X533569D01*
Y481685D01*
X533691D01*
Y481746D01*
X533753D01*
Y481808D01*
X533875D01*
Y481869D01*
X533936D01*
Y481930D01*
X533997D01*
Y481991D01*
X534059D01*
Y482052D01*
X534120D01*
Y482113D01*
X534181D01*
Y482175D01*
X534303D01*
Y482236D01*
X534365D01*
Y482297D01*
X534426D01*
Y482358D01*
X534487D01*
Y482419D01*
X534548D01*
Y482481D01*
X534670D01*
Y482542D01*
Y482603D01*
X534793D01*
Y482664D01*
Y482725D01*
X534854D01*
Y482787D01*
X534976D01*
Y482848D01*
X535038D01*
Y482909D01*
X535099D01*
Y482970D01*
X535160D01*
Y483031D01*
X535221D01*
Y483092D01*
X535282D01*
Y483154D01*
X535344D01*
Y483215D01*
X535405D01*
Y483276D01*
X535466D01*
Y483337D01*
Y483398D01*
X535527D01*
Y483460D01*
X535588D01*
Y483521D01*
X535650D01*
Y483582D01*
X535711D01*
Y483643D01*
X535772D01*
Y483705D01*
X535833D01*
Y483766D01*
Y483827D01*
X535894D01*
Y483888D01*
X535955D01*
Y483949D01*
X536017D01*
Y484011D01*
Y484072D01*
X536139D01*
Y484133D01*
Y484194D01*
X536200D01*
Y484255D01*
X536262D01*
Y484316D01*
Y484378D01*
X536323D01*
Y484439D01*
X536384D01*
Y484500D01*
X536445D01*
Y484561D01*
Y484622D01*
X536506D01*
Y484684D01*
Y484745D01*
X536629D01*
Y484806D01*
Y484867D01*
X536690D01*
Y484928D01*
Y484990D01*
X536751D01*
Y485051D01*
Y485112D01*
X536812D01*
Y485173D01*
X536873D01*
Y485234D01*
Y485295D01*
X536935D01*
Y485357D01*
Y485418D01*
X536996D01*
Y485479D01*
X537057D01*
Y485540D01*
Y485602D01*
X537118D01*
Y485663D01*
X537179D01*
Y485724D01*
Y485785D01*
Y485846D01*
X537241D01*
Y485908D01*
X537302D01*
Y485969D01*
Y486030D01*
X537363D01*
Y486091D01*
Y486152D01*
Y486213D01*
X537424D01*
Y486275D01*
X537485D01*
Y486336D01*
Y486397D01*
Y486458D01*
X537547D01*
Y486519D01*
X537608D01*
Y486581D01*
Y486642D01*
Y486703D01*
Y486764D01*
X537669D01*
Y486825D01*
X537730D01*
Y486887D01*
Y486948D01*
Y487009D01*
Y487070D01*
X537791D01*
Y487131D01*
X537853D01*
Y487192D01*
Y487254D01*
Y487315D01*
Y487376D01*
Y487437D01*
X537914D01*
Y487499D01*
X537975D01*
Y487560D01*
Y487621D01*
Y487682D01*
Y487743D01*
Y487805D01*
X538036D01*
Y487866D01*
X538097D01*
Y487927D01*
Y487988D01*
Y488049D01*
Y488110D01*
Y488172D01*
X538159D01*
Y488233D01*
Y488294D01*
Y488355D01*
X538220D01*
Y488416D01*
Y488478D01*
Y488539D01*
Y488600D01*
X538281D01*
Y488661D01*
Y488722D01*
Y488784D01*
Y488845D01*
Y488906D01*
X538342D01*
Y488967D01*
Y489028D01*
Y489090D01*
X538403D01*
Y489151D01*
Y489212D01*
Y489273D01*
Y489334D01*
Y489396D01*
Y489457D01*
Y489518D01*
Y489579D01*
X538464D01*
Y489640D01*
Y489702D01*
Y489763D01*
Y489824D01*
X538526D01*
Y489885D01*
Y489946D01*
Y490007D01*
Y490069D01*
Y490130D01*
Y490191D01*
Y490252D01*
Y490313D01*
Y490375D01*
Y490436D01*
Y490497D01*
Y490558D01*
Y490619D01*
Y490681D01*
Y490742D01*
Y490803D01*
Y490864D01*
Y490925D01*
Y490987D01*
Y491048D01*
Y491109D01*
Y491170D01*
X538587D01*
Y491231D01*
Y491292D01*
Y491354D01*
Y491415D01*
X538526D01*
Y491476D01*
Y491537D01*
Y491599D01*
Y491660D01*
Y491721D01*
Y491782D01*
Y491843D01*
Y491904D01*
Y491966D01*
Y492027D01*
Y492088D01*
Y492149D01*
Y492210D01*
Y492272D01*
Y492333D01*
Y492394D01*
Y492455D01*
Y492516D01*
Y492578D01*
Y492639D01*
Y492700D01*
Y492761D01*
X538464D01*
Y492822D01*
Y492884D01*
Y492945D01*
Y493006D01*
X538403D01*
Y493067D01*
Y493128D01*
Y493190D01*
Y493251D01*
Y493312D01*
Y493373D01*
Y493434D01*
Y493496D01*
Y493557D01*
X538342D01*
Y493618D01*
Y493679D01*
Y493740D01*
X538281D01*
Y493801D01*
Y493863D01*
Y493924D01*
Y493985D01*
Y494046D01*
X538220D01*
Y494107D01*
Y494169D01*
Y494230D01*
Y494291D01*
X538159D01*
Y494352D01*
Y494413D01*
X538097D01*
Y494475D01*
Y494536D01*
Y494597D01*
Y494658D01*
Y494719D01*
X538036D01*
Y494781D01*
Y494842D01*
X537975D01*
Y494903D01*
Y494964D01*
Y495025D01*
Y495087D01*
Y495148D01*
X537914D01*
Y495209D01*
X537853D01*
Y495270D01*
Y495331D01*
Y495393D01*
Y495454D01*
X537791D01*
Y495515D01*
Y495576D01*
X537730D01*
Y495637D01*
Y495698D01*
Y495760D01*
Y495821D01*
X537669D01*
Y495882D01*
X537608D01*
Y495943D01*
Y496004D01*
Y496066D01*
Y496127D01*
X537547D01*
Y496188D01*
X537485D01*
Y496249D01*
Y496311D01*
Y496372D01*
X537424D01*
Y496433D01*
X537363D01*
Y496494D01*
Y496555D01*
Y496616D01*
X537302D01*
Y496678D01*
Y496739D01*
X537241D01*
Y496800D01*
X537179D01*
Y496861D01*
Y496922D01*
X537118D01*
Y496984D01*
X537057D01*
Y497045D01*
Y497106D01*
Y497167D01*
X536996D01*
Y497228D01*
X536935D01*
Y497290D01*
Y497351D01*
X536873D01*
Y497412D01*
X536812D01*
Y497473D01*
Y497534D01*
X536751D01*
Y497596D01*
Y497657D01*
X536690D01*
Y497718D01*
X536629D01*
Y497779D01*
Y497840D01*
X536567D01*
Y497901D01*
X536506D01*
Y497963D01*
Y498024D01*
X536445D01*
Y498085D01*
X536384D01*
Y498146D01*
Y498208D01*
X536323D01*
Y498269D01*
X536262D01*
Y498330D01*
Y498391D01*
X536200D01*
Y498452D01*
X536139D01*
Y498513D01*
Y498575D01*
X536017D01*
Y498636D01*
Y498697D01*
X535955D01*
Y498758D01*
X535894D01*
Y498819D01*
X535833D01*
Y498881D01*
X535772D01*
Y498942D01*
X535711D01*
Y499003D01*
Y499064D01*
X535650D01*
Y499125D01*
X535588D01*
Y499187D01*
X535527D01*
Y499248D01*
X535466D01*
Y499309D01*
X535405D01*
Y499370D01*
X535344D01*
Y499431D01*
X535282D01*
Y499493D01*
X535221D01*
Y499554D01*
X535160D01*
Y499615D01*
Y499676D01*
X535038D01*
Y499737D01*
X534976D01*
Y499798D01*
X534915D01*
Y499860D01*
X534854D01*
Y499921D01*
X534793D01*
Y499982D01*
X534732D01*
Y500043D01*
X534670D01*
Y500105D01*
X534609D01*
Y500166D01*
X534548D01*
Y500227D01*
X534487D01*
Y500288D01*
X534426D01*
Y500349D01*
X534303D01*
Y500411D01*
X534242D01*
Y500472D01*
X534181D01*
Y500533D01*
X534120D01*
Y500594D01*
X533997D01*
Y500655D01*
X533936D01*
Y500716D01*
X533875D01*
Y500778D01*
X533753D01*
Y500839D01*
X533691D01*
Y500900D01*
X533630D01*
Y500961D01*
X533508D01*
Y501022D01*
X533447D01*
Y501084D01*
X533385D01*
Y501145D01*
X533263D01*
Y501206D01*
X533202D01*
Y501267D01*
X533079D01*
Y501328D01*
X532957D01*
Y501390D01*
X532896D01*
Y501451D01*
X532773D01*
Y501512D01*
X532712D01*
Y501573D01*
X532590D01*
Y501634D01*
X532529D01*
Y501695D01*
X532345D01*
Y501757D01*
X532284D01*
Y501818D01*
X532100D01*
Y501879D01*
X532039D01*
Y501940D01*
X531917D01*
Y502001D01*
X531794D01*
Y502063D01*
X531672D01*
Y502124D01*
X531488D01*
Y502185D01*
X531427D01*
Y502246D01*
X531182D01*
Y502308D01*
X531121D01*
Y502369D01*
X530876D01*
Y502430D01*
X530815D01*
Y502491D01*
X530571D01*
Y502552D01*
X530387D01*
Y502613D01*
X530081D01*
Y502675D01*
X530020D01*
Y502736D01*
X529653D01*
Y502797D01*
X529469D01*
Y502858D01*
X529224D01*
Y502919D01*
X528796D01*
Y502981D01*
X528612D01*
Y503042D01*
X527878D01*
Y503103D01*
X527633D01*
Y503164D01*
D02*
G37*
%LPD*%
G36*
X532835Y498085D02*
X532773D01*
Y497718D01*
X532712D01*
Y497351D01*
X532651D01*
Y497106D01*
X532590D01*
Y496861D01*
X532529D01*
Y496739D01*
X532468D01*
Y496494D01*
X532406D01*
Y496372D01*
X532345D01*
Y496188D01*
X532284D01*
Y496066D01*
X532223D01*
Y495943D01*
X532162D01*
Y495821D01*
X532100D01*
Y495760D01*
X532039D01*
Y495637D01*
X531978D01*
Y495576D01*
X531917D01*
Y495393D01*
X531855D01*
Y495331D01*
X531794D01*
Y495270D01*
X531733D01*
Y495148D01*
X531672D01*
Y495087D01*
X531611D01*
Y495025D01*
X531550D01*
Y494964D01*
X531488D01*
Y494842D01*
X531427D01*
Y494781D01*
X531366D01*
Y494719D01*
X531305D01*
Y494658D01*
X531244D01*
Y494536D01*
X531121D01*
Y494413D01*
X530999D01*
Y494291D01*
X530938D01*
Y494230D01*
X530815D01*
Y494107D01*
X530693D01*
Y494046D01*
X530632D01*
Y493985D01*
X530509D01*
Y493863D01*
X530387D01*
Y493801D01*
X530326D01*
Y493740D01*
X530203D01*
Y493679D01*
X530142D01*
Y493618D01*
X530081D01*
Y493557D01*
X529958D01*
Y493496D01*
X529836D01*
Y493434D01*
X529714D01*
Y493373D01*
X529591D01*
Y493312D01*
X529469D01*
Y493251D01*
X529347D01*
Y493190D01*
X529163D01*
Y493128D01*
X529041D01*
Y493067D01*
X528857D01*
Y493006D01*
X528735D01*
Y492945D01*
X528245D01*
Y492884D01*
X528123D01*
Y492822D01*
X528061D01*
Y492639D01*
X528123D01*
Y492578D01*
X528612D01*
Y492639D01*
X532712D01*
Y492700D01*
X532773D01*
Y492639D01*
X532835D01*
Y490375D01*
X528490D01*
Y490436D01*
X528306D01*
Y490375D01*
X528123D01*
Y490191D01*
X528184D01*
Y490130D01*
X528245D01*
Y490069D01*
X528490D01*
Y490007D01*
X528857D01*
Y489946D01*
X528918D01*
Y489885D01*
X529163D01*
Y489824D01*
X529224D01*
Y489763D01*
X529408D01*
Y489702D01*
X529469D01*
Y489640D01*
X529653D01*
Y489579D01*
X529775D01*
Y489518D01*
X529897D01*
Y489457D01*
X529958D01*
Y489396D01*
X530081D01*
Y489334D01*
X530142D01*
Y489273D01*
X530265D01*
Y489212D01*
X530326D01*
Y489151D01*
X530448D01*
Y489090D01*
X530509D01*
Y489028D01*
X530571D01*
Y488967D01*
X530693D01*
Y488906D01*
X530754D01*
Y488845D01*
X530815D01*
Y488784D01*
X530876D01*
Y488722D01*
X530938D01*
Y488661D01*
X530999D01*
Y488600D01*
X531060D01*
Y488539D01*
X531121D01*
Y488478D01*
X531182D01*
Y488416D01*
X531244D01*
Y488355D01*
X531305D01*
Y488294D01*
X531366D01*
Y488172D01*
X531488D01*
Y488049D01*
X531550D01*
Y487988D01*
X531611D01*
Y487866D01*
X531672D01*
Y487805D01*
X531733D01*
Y487743D01*
X531794D01*
Y487621D01*
X531855D01*
Y487560D01*
X531917D01*
Y487437D01*
X531978D01*
Y487376D01*
X532039D01*
Y487192D01*
X532100D01*
Y487131D01*
X532162D01*
Y487009D01*
X532223D01*
Y486887D01*
X532284D01*
Y486764D01*
X532345D01*
Y486642D01*
X532406D01*
Y486519D01*
X532468D01*
Y486275D01*
X532529D01*
Y486152D01*
X532590D01*
Y485846D01*
X532651D01*
Y485602D01*
X532712D01*
Y485234D01*
X532773D01*
Y484867D01*
X532835D01*
Y484378D01*
X530509D01*
Y484990D01*
X530448D01*
Y485173D01*
X530387D01*
Y485479D01*
X530326D01*
Y485540D01*
X530265D01*
Y485785D01*
X530203D01*
Y485846D01*
X530142D01*
Y485969D01*
X530081D01*
Y486091D01*
X530020D01*
Y486213D01*
X529958D01*
Y486336D01*
X529897D01*
Y486397D01*
X529836D01*
Y486519D01*
X529775D01*
Y486581D01*
X529714D01*
Y486642D01*
X529653D01*
Y486703D01*
X529591D01*
Y486764D01*
X529530D01*
Y486825D01*
X529469D01*
Y486887D01*
X529408D01*
Y486948D01*
X529347D01*
Y487009D01*
X529285D01*
Y487070D01*
X529224D01*
Y487131D01*
X529163D01*
Y487192D01*
X529041D01*
Y487315D01*
X528918D01*
Y487376D01*
X528857D01*
Y487437D01*
X528735D01*
Y487499D01*
X528612D01*
Y487560D01*
X528551D01*
Y487621D01*
X528429D01*
Y487682D01*
X528306D01*
Y487743D01*
X528184D01*
Y487805D01*
X527939D01*
Y484378D01*
X525614D01*
Y487805D01*
X525430D01*
Y487743D01*
X525247D01*
Y487682D01*
X525185D01*
Y487621D01*
X525002D01*
Y487560D01*
X524941D01*
Y487499D01*
X524818D01*
Y487437D01*
X524757D01*
Y487376D01*
X524696D01*
Y487315D01*
X524573D01*
Y487254D01*
X524512D01*
Y487192D01*
X524451D01*
Y487131D01*
X524390D01*
Y487070D01*
X524267D01*
Y487009D01*
X524206D01*
Y486948D01*
X524145D01*
Y486887D01*
X524084D01*
Y486825D01*
X524023D01*
Y486764D01*
X523961D01*
Y486703D01*
X523900D01*
Y486581D01*
X523839D01*
Y486519D01*
X523778D01*
Y486397D01*
X523717D01*
Y486336D01*
X523656D01*
Y486213D01*
X523594D01*
Y486152D01*
X523533D01*
Y486030D01*
X523472D01*
Y485969D01*
X523411D01*
Y485785D01*
X523350D01*
Y485663D01*
X523288D01*
Y485479D01*
X523227D01*
Y485357D01*
X523166D01*
Y485051D01*
X523105D01*
Y484684D01*
X523044D01*
Y484378D01*
X520718D01*
Y484500D01*
X520779D01*
Y484990D01*
X520841D01*
Y485540D01*
X520902D01*
Y485785D01*
X520963D01*
Y485969D01*
X521024D01*
Y486152D01*
X521085D01*
Y486397D01*
X521147D01*
Y486519D01*
X521208D01*
Y486703D01*
X521269D01*
Y486764D01*
X521330D01*
Y486948D01*
X521391D01*
Y487070D01*
X521453D01*
Y487192D01*
X521514D01*
Y487254D01*
X521575D01*
Y487376D01*
X521636D01*
Y487499D01*
X521697D01*
Y487560D01*
X521759D01*
Y487682D01*
X521820D01*
Y487743D01*
X521881D01*
Y487866D01*
X521942D01*
Y487927D01*
X522003D01*
Y488049D01*
X522064D01*
Y488110D01*
X522126D01*
Y488172D01*
X522187D01*
Y488233D01*
X522248D01*
Y488294D01*
X522309D01*
Y488355D01*
X522370D01*
Y488416D01*
X522432D01*
Y488478D01*
X522493D01*
Y488539D01*
X522554D01*
Y488600D01*
X522615D01*
Y488661D01*
X522676D01*
Y488722D01*
X522738D01*
Y488784D01*
X522799D01*
Y488845D01*
X522860D01*
Y488906D01*
X522921D01*
Y488967D01*
X522982D01*
Y489028D01*
X523044D01*
Y489090D01*
X523166D01*
Y489151D01*
X523227D01*
Y489212D01*
X523288D01*
Y489273D01*
X523411D01*
Y489334D01*
X523472D01*
Y489396D01*
X523594D01*
Y489457D01*
X523656D01*
Y489518D01*
X523839D01*
Y489579D01*
X523900D01*
Y489640D01*
X524084D01*
Y489702D01*
X524206D01*
Y489763D01*
X524390D01*
Y489824D01*
X524451D01*
Y489885D01*
X524635D01*
Y489946D01*
X524757D01*
Y490007D01*
X525063D01*
Y490069D01*
X525430D01*
Y490191D01*
X525491D01*
Y490375D01*
X525369D01*
Y490436D01*
X525063D01*
Y490375D01*
X520779D01*
Y490436D01*
X520718D01*
Y490497D01*
X520779D01*
Y492639D01*
X525002D01*
Y492578D01*
X525430D01*
Y492700D01*
X525491D01*
Y492822D01*
X525430D01*
Y492884D01*
X525369D01*
Y492945D01*
X524879D01*
Y493006D01*
X524757D01*
Y493067D01*
X524512D01*
Y493128D01*
X524451D01*
Y493190D01*
X524267D01*
Y493251D01*
X524145D01*
Y493312D01*
X524023D01*
Y493373D01*
X523900D01*
Y493434D01*
X523717D01*
Y493496D01*
X523656D01*
Y493557D01*
X523533D01*
Y493618D01*
X523472D01*
Y493679D01*
X523350D01*
Y493740D01*
X523288D01*
Y493801D01*
X523227D01*
Y493863D01*
X523105D01*
Y493924D01*
X523044D01*
Y493985D01*
X522982D01*
Y494046D01*
X522921D01*
Y494107D01*
X522799D01*
Y494230D01*
X522676D01*
Y494291D01*
X522615D01*
Y494352D01*
X522554D01*
Y494413D01*
X522493D01*
Y494475D01*
X522432D01*
Y494536D01*
X522370D01*
Y494597D01*
X522309D01*
Y494658D01*
X522248D01*
Y494719D01*
X522187D01*
Y494781D01*
X522126D01*
Y494903D01*
X522064D01*
Y494964D01*
X522003D01*
Y495025D01*
X521942D01*
Y495087D01*
X521881D01*
Y495270D01*
X521759D01*
Y495454D01*
X521636D01*
Y495637D01*
X521575D01*
Y495698D01*
X521514D01*
Y495821D01*
X521453D01*
Y495943D01*
X521391D01*
Y496004D01*
X521330D01*
Y496188D01*
X521269D01*
Y496249D01*
X521208D01*
Y496494D01*
X521147D01*
Y496616D01*
X521085D01*
Y496861D01*
X521024D01*
Y496984D01*
X520963D01*
Y497167D01*
X520902D01*
Y497473D01*
X520841D01*
Y498024D01*
X520779D01*
Y498636D01*
X523044D01*
Y498330D01*
X523105D01*
Y497901D01*
X523166D01*
Y497657D01*
X523227D01*
Y497534D01*
X523288D01*
Y497290D01*
X523350D01*
Y497167D01*
X523411D01*
Y497045D01*
X523472D01*
Y496984D01*
X523533D01*
Y496861D01*
X523594D01*
Y496739D01*
X523656D01*
Y496616D01*
X523717D01*
Y496555D01*
X523778D01*
Y496433D01*
X523839D01*
Y496372D01*
X523900D01*
Y496311D01*
X523961D01*
Y496249D01*
X524023D01*
Y496188D01*
X524084D01*
Y496127D01*
X524145D01*
Y496066D01*
X524206D01*
Y496004D01*
X524267D01*
Y495943D01*
X524329D01*
Y495882D01*
X524390D01*
Y495821D01*
X524451D01*
Y495760D01*
X524573D01*
Y495698D01*
X524635D01*
Y495637D01*
X524757D01*
Y495515D01*
X524879D01*
Y495454D01*
X525002D01*
Y495393D01*
X525124D01*
Y495331D01*
X525247D01*
Y495270D01*
X525369D01*
Y495209D01*
X525614D01*
Y495331D01*
X525675D01*
Y495393D01*
X525614D01*
Y498330D01*
X525675D01*
Y498391D01*
X525614D01*
Y498636D01*
X527939D01*
Y495209D01*
X528245D01*
Y495270D01*
X528306D01*
Y495331D01*
X528490D01*
Y495393D01*
X528612D01*
Y495454D01*
X528673D01*
Y495515D01*
X528796D01*
Y495576D01*
X528857D01*
Y495637D01*
X528979D01*
Y495698D01*
X529041D01*
Y495760D01*
X529102D01*
Y495821D01*
X529224D01*
Y495882D01*
X529285D01*
Y495943D01*
X529347D01*
Y496004D01*
X529408D01*
Y496066D01*
X529469D01*
Y496127D01*
X529530D01*
Y496188D01*
X529591D01*
Y496249D01*
X529653D01*
Y496311D01*
X529714D01*
Y496433D01*
X529775D01*
Y496494D01*
X529836D01*
Y496616D01*
X529897D01*
Y496678D01*
X529958D01*
Y496800D01*
X530020D01*
Y496861D01*
X530081D01*
Y496984D01*
X530142D01*
Y497106D01*
X530203D01*
Y497228D01*
X530265D01*
Y497412D01*
X530326D01*
Y497534D01*
X530387D01*
Y497779D01*
X530448D01*
Y497963D01*
X530509D01*
Y498636D01*
X532835D01*
Y498085D01*
D02*
G37*
D52*
X388569Y500238D02*
X388944Y500050D01*
X389319Y499675D01*
X389506Y499301D01*
Y498551D01*
X389319Y498176D01*
X388944Y497801D01*
X388569Y497614D01*
X388007Y497426D01*
X387070D01*
X386507Y497614D01*
X386132Y497801D01*
X385757Y498176D01*
X385570Y498551D01*
Y499301D01*
X385757Y499675D01*
X386132Y500050D01*
X386507Y500238D01*
X387070D01*
Y499301D02*
Y500238D01*
X389506Y501137D02*
X385570D01*
X389506D02*
X385570Y503761D01*
X389506D02*
X385570D01*
X389506Y504849D02*
X385570D01*
X389506D02*
Y506161D01*
X389319Y506723D01*
X388944Y507098D01*
X388569Y507285D01*
X388007Y507473D01*
X387070D01*
X386507Y507285D01*
X386132Y507098D01*
X385757Y506723D01*
X385570Y506161D01*
Y504849D01*
X424344Y495782D02*
X424719Y495407D01*
X424906Y494845D01*
Y494096D01*
X424719Y493533D01*
X424344Y493158D01*
X423969D01*
X423594Y493346D01*
X423407Y493533D01*
X423219Y493908D01*
X422845Y495033D01*
X422657Y495407D01*
X422470Y495595D01*
X422095Y495782D01*
X421532D01*
X421158Y495407D01*
X420970Y494845D01*
Y494096D01*
X421158Y493533D01*
X421532Y493158D01*
X424906Y496663D02*
X420970D01*
X424906D02*
X420970Y498163D01*
X424906Y499662D02*
X420970Y498163D01*
X424906Y499662D02*
X420970D01*
X424906Y500787D02*
X420970D01*
X424906D02*
Y502474D01*
X424719Y503036D01*
X424531Y503224D01*
X424157Y503411D01*
X423782D01*
X423407Y503224D01*
X423219Y503036D01*
X423032Y502474D01*
Y500787D02*
Y502474D01*
X422845Y503036D01*
X422657Y503224D01*
X422282Y503411D01*
X421720D01*
X421345Y503224D01*
X421158Y503036D01*
X420970Y502474D01*
Y500787D01*
X424906Y504292D02*
X420970D01*
X424906D02*
Y505604D01*
X424719Y506166D01*
X424344Y506541D01*
X423969Y506729D01*
X423407Y506916D01*
X422470D01*
X421907Y506729D01*
X421532Y506541D01*
X421158Y506166D01*
X420970Y505604D01*
Y504292D01*
X412544Y500093D02*
X412919Y499719D01*
X413106Y499156D01*
Y498407D01*
X412919Y497844D01*
X412544Y497469D01*
X412169D01*
X411794Y497657D01*
X411607Y497844D01*
X411419Y498219D01*
X411045Y499344D01*
X410857Y499719D01*
X410670Y499906D01*
X410295Y500093D01*
X409732D01*
X409358Y499719D01*
X409170Y499156D01*
Y498407D01*
X409358Y497844D01*
X409732Y497469D01*
X413106Y500974D02*
X409170D01*
X413106D02*
Y502286D01*
X412919Y502849D01*
X412544Y503224D01*
X412169Y503411D01*
X411607Y503598D01*
X410670D01*
X410107Y503411D01*
X409732Y503224D01*
X409358Y502849D01*
X409170Y502286D01*
Y500974D01*
Y507478D02*
X413106Y505979D01*
X409170Y504479D01*
X410482Y505042D02*
Y506916D01*
X400744Y500481D02*
X401119Y500106D01*
X401306Y499544D01*
Y498795D01*
X401119Y498232D01*
X400744Y497857D01*
X400369D01*
X399994Y498045D01*
X399807Y498232D01*
X399619Y498607D01*
X399244Y499732D01*
X399057Y500106D01*
X398870Y500294D01*
X398495Y500481D01*
X397932D01*
X397557Y500106D01*
X397370Y499544D01*
Y498795D01*
X397557Y498232D01*
X397932Y497857D01*
X400369Y504174D02*
X400744Y503987D01*
X401119Y503612D01*
X401306Y503237D01*
Y502487D01*
X401119Y502112D01*
X400744Y501737D01*
X400369Y501550D01*
X399807Y501362D01*
X398870D01*
X398307Y501550D01*
X397932Y501737D01*
X397557Y502112D01*
X397370Y502487D01*
Y503237D01*
X397557Y503612D01*
X397932Y503987D01*
X398307Y504174D01*
X401306Y505280D02*
X397370D01*
Y507529D01*
X436144Y495567D02*
X436519Y495192D01*
X436706Y494630D01*
Y493880D01*
X436519Y493318D01*
X436144Y492943D01*
X435769D01*
X435394Y493130D01*
X435207Y493318D01*
X435019Y493692D01*
X434645Y494817D01*
X434457Y495192D01*
X434270Y495379D01*
X433895Y495567D01*
X433332D01*
X432958Y495192D01*
X432770Y494630D01*
Y493880D01*
X432958Y493318D01*
X433332Y492943D01*
X436706Y496448D02*
X432770D01*
X436706D02*
X432770Y497947D01*
X436706Y499447D02*
X432770Y497947D01*
X436706Y499447D02*
X432770D01*
X436706Y500571D02*
X432770D01*
X436706D02*
Y502258D01*
X436519Y502821D01*
X436331Y503008D01*
X435956Y503195D01*
X435582D01*
X435207Y503008D01*
X435019Y502821D01*
X434832Y502258D01*
Y500571D02*
Y502258D01*
X434645Y502821D01*
X434457Y503008D01*
X434082Y503195D01*
X433520D01*
X433145Y503008D01*
X432958Y502821D01*
X432770Y502258D01*
Y500571D01*
X435769Y506888D02*
X436144Y506701D01*
X436519Y506326D01*
X436706Y505951D01*
Y505201D01*
X436519Y504826D01*
X436144Y504451D01*
X435769Y504264D01*
X435207Y504076D01*
X434270D01*
X433707Y504264D01*
X433332Y504451D01*
X432958Y504826D01*
X432770Y505201D01*
Y505951D01*
X432958Y506326D01*
X433332Y506701D01*
X433707Y506888D01*
X448506Y497900D02*
X444570Y499400D01*
X448506Y500899D02*
X444570Y499400D01*
X448506Y501405D02*
X444570D01*
X448506D02*
Y502717D01*
X448319Y503280D01*
X447944Y503655D01*
X447569Y503842D01*
X447007Y504030D01*
X446070D01*
X445507Y503842D01*
X445132Y503655D01*
X444758Y503280D01*
X444570Y502717D01*
Y501405D01*
X448506Y504911D02*
X444570D01*
X448506D02*
Y506223D01*
X448319Y506785D01*
X447944Y507160D01*
X447569Y507347D01*
X447007Y507535D01*
X446070D01*
X445507Y507347D01*
X445132Y507160D01*
X444758Y506785D01*
X444570Y506223D01*
Y504911D01*
X453571Y523797D02*
X453196Y523609D01*
X452821Y523234D01*
X452634Y522859D01*
Y522110D01*
X452821Y521735D01*
X453196Y521360D01*
X453571Y521173D01*
X454133Y520985D01*
X455071D01*
X455633Y521173D01*
X456008Y521360D01*
X456383Y521735D01*
X456570Y522110D01*
Y522859D01*
X456383Y523234D01*
X456008Y523609D01*
X455633Y523797D01*
X455071D01*
Y522859D02*
Y523797D01*
X452634Y524696D02*
X456570D01*
X452634D02*
X456570Y527320D01*
X452634D02*
X456570D01*
X452634Y528407D02*
X456570D01*
X452634D02*
Y529720D01*
X452821Y530282D01*
X453196Y530657D01*
X453571Y530844D01*
X454133Y531032D01*
X455071D01*
X455633Y530844D01*
X456008Y530657D01*
X456383Y530282D01*
X456570Y529720D01*
Y528407D01*
X424173Y535663D02*
X424548Y535476D01*
X424923Y535101D01*
X425110Y534726D01*
Y533976D01*
X424923Y533601D01*
X424548Y533226D01*
X424173Y533039D01*
X423611Y532852D01*
X422674D01*
X422111Y533039D01*
X421736Y533226D01*
X421361Y533601D01*
X421174Y533976D01*
Y534726D01*
X421361Y535101D01*
X421736Y535476D01*
X422111Y535663D01*
X421174Y539768D02*
X425110Y538269D01*
X421174Y536769D01*
X422486Y537331D02*
Y539206D01*
X425110Y540687D02*
X421174D01*
X425110D02*
X421174Y543311D01*
X425110D02*
X421174D01*
X425110Y547490D02*
X421174D01*
Y549740D01*
X389866Y532852D02*
X385930Y534351D01*
X389866Y535851D02*
X385930Y534351D01*
X389866Y536357D02*
X385930D01*
X389866D02*
Y537669D01*
X389679Y538231D01*
X389304Y538606D01*
X388929Y538793D01*
X388367Y538981D01*
X387429D01*
X386867Y538793D01*
X386492Y538606D01*
X386117Y538231D01*
X385930Y537669D01*
Y536357D01*
X389866Y539862D02*
X385930D01*
X389866D02*
Y541174D01*
X389679Y541736D01*
X389304Y542111D01*
X388929Y542298D01*
X388367Y542486D01*
X387429D01*
X386867Y542298D01*
X386492Y542111D01*
X386117Y541736D01*
X385930Y541174D01*
Y539862D01*
X401488Y532852D02*
X397552D01*
X401488D02*
Y534539D01*
X401301Y535101D01*
X401113Y535288D01*
X400738Y535476D01*
X400363D01*
X399989Y535288D01*
X399801Y535101D01*
X399614Y534539D01*
Y532852D01*
Y534164D02*
X397552Y535476D01*
X401488Y536357D02*
X397552Y538981D01*
X401488D02*
X397552Y536357D01*
X435984Y535663D02*
X436359Y535476D01*
X436734Y535101D01*
X436921Y534726D01*
Y533976D01*
X436734Y533601D01*
X436359Y533226D01*
X435984Y533039D01*
X435422Y532852D01*
X434485D01*
X433922Y533039D01*
X433547Y533226D01*
X433173Y533601D01*
X432985Y533976D01*
Y534726D01*
X433173Y535101D01*
X433547Y535476D01*
X433922Y535663D01*
X432985Y539768D02*
X436921Y538269D01*
X432985Y536769D01*
X434297Y537331D02*
Y539206D01*
X436921Y540687D02*
X432985D01*
X436921D02*
X432985Y543311D01*
X436921D02*
X432985D01*
X436921Y547490D02*
X432985D01*
X436921Y550114D02*
X432985D01*
X435047Y547490D02*
Y550114D01*
X413299Y534164D02*
X409363D01*
X413299Y532852D02*
Y535476D01*
Y535944D02*
X409363Y538568D01*
X413299D02*
X409363Y535944D01*
X79445Y458757D02*
X79633Y459131D01*
X80008Y459506D01*
X80383Y459694D01*
X81132D01*
X81507Y459506D01*
X81882Y459131D01*
X82069Y458757D01*
X82257Y458194D01*
Y457257D01*
X82069Y456695D01*
X81882Y456320D01*
X81507Y455945D01*
X81132Y455758D01*
X80383D01*
X80008Y455945D01*
X79633Y456320D01*
X79445Y456695D01*
X78339Y458944D02*
X77965Y459131D01*
X77402Y459694D01*
Y455758D01*
X75078Y459694D02*
X73016D01*
X74141Y458194D01*
X73579D01*
X73204Y458007D01*
X73016Y457819D01*
X72829Y457257D01*
Y456882D01*
X73016Y456320D01*
X73391Y455945D01*
X73953Y455758D01*
X74516D01*
X75078Y455945D01*
X75266Y456132D01*
X75453Y456507D01*
X79445Y486352D02*
X79633Y486727D01*
X80008Y487102D01*
X80383Y487289D01*
X81132D01*
X81507Y487102D01*
X81882Y486727D01*
X82069Y486352D01*
X82257Y485789D01*
Y484852D01*
X82069Y484290D01*
X81882Y483915D01*
X81507Y483540D01*
X81132Y483353D01*
X80383D01*
X80008Y483540D01*
X79633Y483915D01*
X79445Y484290D01*
X78339Y486539D02*
X77965Y486727D01*
X77402Y487289D01*
Y483353D01*
X73204Y487289D02*
X75078D01*
X75266Y485602D01*
X75078Y485789D01*
X74516Y485977D01*
X73953D01*
X73391Y485789D01*
X73016Y485415D01*
X72829Y484852D01*
Y484477D01*
X73016Y483915D01*
X73391Y483540D01*
X73953Y483353D01*
X74516D01*
X75078Y483540D01*
X75266Y483728D01*
X75453Y484102D01*
X75910Y403566D02*
X76098Y403941D01*
X76473Y404316D01*
X76847Y404503D01*
X77597D01*
X77972Y404316D01*
X78347Y403941D01*
X78535Y403566D01*
X78722Y403004D01*
Y402067D01*
X78535Y401504D01*
X78347Y401130D01*
X77972Y400755D01*
X77597Y400567D01*
X76847D01*
X76473Y400755D01*
X76098Y401130D01*
X75910Y401504D01*
X72368Y403191D02*
X72555Y402629D01*
X72930Y402254D01*
X73492Y402067D01*
X73680D01*
X74242Y402254D01*
X74617Y402629D01*
X74805Y403191D01*
Y403379D01*
X74617Y403941D01*
X74242Y404316D01*
X73680Y404503D01*
X73492D01*
X72930Y404316D01*
X72555Y403941D01*
X72368Y403191D01*
Y402254D01*
X72555Y401317D01*
X72930Y400755D01*
X73492Y400567D01*
X73867D01*
X74430Y400755D01*
X74617Y401130D01*
X77505Y431161D02*
X77693Y431536D01*
X78068Y431911D01*
X78443Y432099D01*
X79192D01*
X79567Y431911D01*
X79942Y431536D01*
X80130Y431161D01*
X80317Y430599D01*
Y429662D01*
X80130Y429100D01*
X79942Y428725D01*
X79567Y428350D01*
X79192Y428162D01*
X78443D01*
X78068Y428350D01*
X77693Y428725D01*
X77505Y429100D01*
X76400Y431349D02*
X76025Y431536D01*
X75462Y432099D01*
Y428162D01*
X73513Y431349D02*
X73138Y431536D01*
X72576Y432099D01*
Y428162D01*
X76126Y348376D02*
X76313Y348751D01*
X76688Y349126D01*
X77063Y349313D01*
X77813D01*
X78188Y349126D01*
X78563Y348751D01*
X78750Y348376D01*
X78938Y347814D01*
Y346876D01*
X78750Y346314D01*
X78563Y345939D01*
X78188Y345564D01*
X77813Y345377D01*
X77063D01*
X76688Y345564D01*
X76313Y345939D01*
X76126Y346314D01*
X72771Y349313D02*
X74645D01*
X74833Y347626D01*
X74645Y347814D01*
X74083Y348001D01*
X73521D01*
X72958Y347814D01*
X72583Y347439D01*
X72396Y346876D01*
Y346502D01*
X72583Y345939D01*
X72958Y345564D01*
X73521Y345377D01*
X74083D01*
X74645Y345564D01*
X74833Y345752D01*
X75020Y346127D01*
X76126Y375971D02*
X76313Y376346D01*
X76688Y376721D01*
X77063Y376908D01*
X77813D01*
X78188Y376721D01*
X78563Y376346D01*
X78750Y375971D01*
X78938Y375409D01*
Y374472D01*
X78750Y373909D01*
X78563Y373534D01*
X78188Y373160D01*
X77813Y372972D01*
X77063D01*
X76688Y373160D01*
X76313Y373534D01*
X76126Y373909D01*
X72396Y376908D02*
X74270Y372972D01*
X75020Y376908D02*
X72396D01*
X76126Y320781D02*
X76313Y321156D01*
X76688Y321531D01*
X77063Y321718D01*
X77813D01*
X78188Y321531D01*
X78563Y321156D01*
X78750Y320781D01*
X78938Y320218D01*
Y319281D01*
X78750Y318719D01*
X78563Y318344D01*
X78188Y317969D01*
X77813Y317782D01*
X77063D01*
X76688Y317969D01*
X76313Y318344D01*
X76126Y318719D01*
X74645Y321718D02*
X72583D01*
X73708Y320218D01*
X73146D01*
X72771Y320031D01*
X72583Y319844D01*
X72396Y319281D01*
Y318906D01*
X72583Y318344D01*
X72958Y317969D01*
X73521Y317782D01*
X74083D01*
X74645Y317969D01*
X74833Y318157D01*
X75020Y318531D01*
X74186Y293186D02*
X74373Y293561D01*
X74748Y293935D01*
X75123Y294123D01*
X75873D01*
X76248Y293935D01*
X76623Y293561D01*
X76810Y293186D01*
X76998Y292623D01*
Y291686D01*
X76810Y291124D01*
X76623Y290749D01*
X76248Y290374D01*
X75873Y290187D01*
X75123D01*
X74748Y290374D01*
X74373Y290749D01*
X74186Y291124D01*
X73080Y293373D02*
X72705Y293561D01*
X72143Y294123D01*
Y290187D01*
X76126Y279388D02*
X76313Y279763D01*
X76688Y280138D01*
X77063Y280325D01*
X77813D01*
X78188Y280138D01*
X78563Y279763D01*
X78750Y279388D01*
X78938Y278826D01*
Y277888D01*
X78750Y277326D01*
X78563Y276951D01*
X78188Y276576D01*
X77813Y276389D01*
X77063D01*
X76688Y276576D01*
X76313Y276951D01*
X76126Y277326D01*
X73895Y280325D02*
X74458Y280138D01*
X74833Y279575D01*
X75020Y278638D01*
Y278076D01*
X74833Y277139D01*
X74458Y276576D01*
X73895Y276389D01*
X73521D01*
X72958Y276576D01*
X72583Y277139D01*
X72396Y278076D01*
Y278638D01*
X72583Y279575D01*
X72958Y280138D01*
X73521Y280325D01*
X73895D01*
X76126Y306983D02*
X76313Y307358D01*
X76688Y307733D01*
X77063Y307920D01*
X77813D01*
X78188Y307733D01*
X78563Y307358D01*
X78750Y306983D01*
X78938Y306421D01*
Y305484D01*
X78750Y304921D01*
X78563Y304546D01*
X78188Y304172D01*
X77813Y303984D01*
X77063D01*
X76688Y304172D01*
X76313Y304546D01*
X76126Y304921D01*
X74833Y306983D02*
Y307171D01*
X74645Y307545D01*
X74458Y307733D01*
X74083Y307920D01*
X73333D01*
X72958Y307733D01*
X72771Y307545D01*
X72583Y307171D01*
Y306796D01*
X72771Y306421D01*
X73146Y305859D01*
X75020Y303984D01*
X72396D01*
X75910Y362174D02*
X76098Y362548D01*
X76473Y362923D01*
X76847Y363111D01*
X77597D01*
X77972Y362923D01*
X78347Y362548D01*
X78535Y362174D01*
X78722Y361611D01*
Y360674D01*
X78535Y360112D01*
X78347Y359737D01*
X77972Y359362D01*
X77597Y359174D01*
X76847D01*
X76473Y359362D01*
X76098Y359737D01*
X75910Y360112D01*
X72555Y362548D02*
X72743Y362923D01*
X73305Y363111D01*
X73680D01*
X74242Y362923D01*
X74617Y362361D01*
X74805Y361424D01*
Y360487D01*
X74617Y359737D01*
X74242Y359362D01*
X73680Y359174D01*
X73492D01*
X72930Y359362D01*
X72555Y359737D01*
X72368Y360299D01*
Y360487D01*
X72555Y361049D01*
X72930Y361424D01*
X73492Y361611D01*
X73680D01*
X74242Y361424D01*
X74617Y361049D01*
X74805Y360487D01*
X76341Y334578D02*
X76529Y334953D01*
X76904Y335328D01*
X77279Y335515D01*
X78028D01*
X78403Y335328D01*
X78778Y334953D01*
X78966Y334578D01*
X79153Y334016D01*
Y333079D01*
X78966Y332517D01*
X78778Y332142D01*
X78403Y331767D01*
X78028Y331579D01*
X77279D01*
X76904Y331767D01*
X76529Y332142D01*
X76341Y332517D01*
X73361Y335515D02*
X75236Y332891D01*
X72424D01*
X73361Y335515D02*
Y331579D01*
X79445Y417364D02*
X79633Y417739D01*
X80008Y418114D01*
X80383Y418301D01*
X81132D01*
X81507Y418114D01*
X81882Y417739D01*
X82069Y417364D01*
X82257Y416802D01*
Y415864D01*
X82069Y415302D01*
X81882Y414927D01*
X81507Y414552D01*
X81132Y414365D01*
X80383D01*
X80008Y414552D01*
X79633Y414927D01*
X79445Y415302D01*
X78339Y417551D02*
X77965Y417739D01*
X77402Y418301D01*
Y414365D01*
X74328Y418301D02*
X74891Y418114D01*
X75266Y417551D01*
X75453Y416614D01*
Y416052D01*
X75266Y415115D01*
X74891Y414552D01*
X74328Y414365D01*
X73953D01*
X73391Y414552D01*
X73016Y415115D01*
X72829Y416052D01*
Y416614D01*
X73016Y417551D01*
X73391Y418114D01*
X73953Y418301D01*
X74328D01*
X76126Y389769D02*
X76313Y390143D01*
X76688Y390518D01*
X77063Y390706D01*
X77813D01*
X78188Y390518D01*
X78563Y390143D01*
X78750Y389769D01*
X78938Y389206D01*
Y388269D01*
X78750Y387707D01*
X78563Y387332D01*
X78188Y386957D01*
X77813Y386770D01*
X77063D01*
X76688Y386957D01*
X76313Y387332D01*
X76126Y387707D01*
X74083Y390706D02*
X74645Y390518D01*
X74833Y390143D01*
Y389769D01*
X74645Y389394D01*
X74270Y389206D01*
X73521Y389019D01*
X72958Y388831D01*
X72583Y388457D01*
X72396Y388082D01*
Y387519D01*
X72583Y387144D01*
X72771Y386957D01*
X73333Y386770D01*
X74083D01*
X74645Y386957D01*
X74833Y387144D01*
X75020Y387519D01*
Y388082D01*
X74833Y388457D01*
X74458Y388831D01*
X73895Y389019D01*
X73146Y389206D01*
X72771Y389394D01*
X72583Y389769D01*
Y390143D01*
X72771Y390518D01*
X73333Y390706D01*
X74083D01*
X79661Y472554D02*
X79848Y472929D01*
X80223Y473304D01*
X80598Y473491D01*
X81348D01*
X81723Y473304D01*
X82098Y472929D01*
X82285Y472554D01*
X82472Y471992D01*
Y471055D01*
X82285Y470492D01*
X82098Y470118D01*
X81723Y469743D01*
X81348Y469555D01*
X80598D01*
X80223Y469743D01*
X79848Y470118D01*
X79661Y470492D01*
X78555Y472742D02*
X78180Y472929D01*
X77618Y473491D01*
Y469555D01*
X73794Y473491D02*
X75669Y470867D01*
X72857D01*
X73794Y473491D02*
Y469555D01*
X79445Y444959D02*
X79633Y445334D01*
X80008Y445709D01*
X80383Y445896D01*
X81132D01*
X81507Y445709D01*
X81882Y445334D01*
X82069Y444959D01*
X82257Y444397D01*
Y443460D01*
X82069Y442897D01*
X81882Y442522D01*
X81507Y442147D01*
X81132Y441960D01*
X80383D01*
X80008Y442147D01*
X79633Y442522D01*
X79445Y442897D01*
X78339Y445146D02*
X77965Y445334D01*
X77402Y445896D01*
Y441960D01*
X75266Y444959D02*
Y445146D01*
X75078Y445521D01*
X74891Y445709D01*
X74516Y445896D01*
X73766D01*
X73391Y445709D01*
X73204Y445521D01*
X73016Y445146D01*
Y444772D01*
X73204Y444397D01*
X73579Y443834D01*
X75453Y441960D01*
X72829D01*
X900380Y500238D02*
X900755Y500050D01*
X901130Y499675D01*
X901317Y499301D01*
Y498551D01*
X901130Y498176D01*
X900755Y497801D01*
X900380Y497614D01*
X899818Y497426D01*
X898881D01*
X898318Y497614D01*
X897943Y497801D01*
X897569Y498176D01*
X897381Y498551D01*
Y499301D01*
X897569Y499675D01*
X897943Y500050D01*
X898318Y500238D01*
X898881D01*
Y499301D02*
Y500238D01*
X901317Y501137D02*
X897381D01*
X901317D02*
X897381Y503761D01*
X901317D02*
X897381D01*
X901317Y504849D02*
X897381D01*
X901317D02*
Y506161D01*
X901130Y506723D01*
X900755Y507098D01*
X900380Y507285D01*
X899818Y507473D01*
X898881D01*
X898318Y507285D01*
X897943Y507098D01*
X897569Y506723D01*
X897381Y506161D01*
Y504849D01*
X936155Y495782D02*
X936530Y495407D01*
X936717Y494845D01*
Y494096D01*
X936530Y493533D01*
X936155Y493158D01*
X935780D01*
X935405Y493346D01*
X935218Y493533D01*
X935030Y493908D01*
X934655Y495033D01*
X934468Y495407D01*
X934281Y495595D01*
X933906Y495782D01*
X933343D01*
X932969Y495407D01*
X932781Y494845D01*
Y494096D01*
X932969Y493533D01*
X933343Y493158D01*
X936717Y496663D02*
X932781D01*
X936717D02*
X932781Y498163D01*
X936717Y499662D02*
X932781Y498163D01*
X936717Y499662D02*
X932781D01*
X936717Y500787D02*
X932781D01*
X936717D02*
Y502474D01*
X936530Y503036D01*
X936342Y503224D01*
X935968Y503411D01*
X935593D01*
X935218Y503224D01*
X935030Y503036D01*
X934843Y502474D01*
Y500787D02*
Y502474D01*
X934655Y503036D01*
X934468Y503224D01*
X934093Y503411D01*
X933531D01*
X933156Y503224D01*
X932969Y503036D01*
X932781Y502474D01*
Y500787D01*
X936717Y504292D02*
X932781D01*
X936717D02*
Y505604D01*
X936530Y506166D01*
X936155Y506541D01*
X935780Y506729D01*
X935218Y506916D01*
X934281D01*
X933718Y506729D01*
X933343Y506541D01*
X932969Y506166D01*
X932781Y505604D01*
Y504292D01*
X924355Y500093D02*
X924730Y499719D01*
X924917Y499156D01*
Y498407D01*
X924730Y497844D01*
X924355Y497469D01*
X923980D01*
X923605Y497657D01*
X923418Y497844D01*
X923230Y498219D01*
X922855Y499344D01*
X922668Y499719D01*
X922481Y499906D01*
X922106Y500093D01*
X921543D01*
X921169Y499719D01*
X920981Y499156D01*
Y498407D01*
X921169Y497844D01*
X921543Y497469D01*
X924917Y500974D02*
X920981D01*
X924917D02*
Y502286D01*
X924730Y502849D01*
X924355Y503224D01*
X923980Y503411D01*
X923418Y503598D01*
X922481D01*
X921918Y503411D01*
X921543Y503224D01*
X921169Y502849D01*
X920981Y502286D01*
Y500974D01*
Y507478D02*
X924917Y505979D01*
X920981Y504479D01*
X922293Y505042D02*
Y506916D01*
X912555Y500481D02*
X912930Y500106D01*
X913117Y499544D01*
Y498795D01*
X912930Y498232D01*
X912555Y497857D01*
X912180D01*
X911805Y498045D01*
X911618Y498232D01*
X911430Y498607D01*
X911055Y499732D01*
X910868Y500106D01*
X910681Y500294D01*
X910306Y500481D01*
X909743D01*
X909369Y500106D01*
X909181Y499544D01*
Y498795D01*
X909369Y498232D01*
X909743Y497857D01*
X912180Y504174D02*
X912555Y503987D01*
X912930Y503612D01*
X913117Y503237D01*
Y502487D01*
X912930Y502112D01*
X912555Y501737D01*
X912180Y501550D01*
X911618Y501362D01*
X910681D01*
X910118Y501550D01*
X909743Y501737D01*
X909369Y502112D01*
X909181Y502487D01*
Y503237D01*
X909369Y503612D01*
X909743Y503987D01*
X910118Y504174D01*
X913117Y505280D02*
X909181D01*
Y507529D01*
X947955Y495567D02*
X948330Y495192D01*
X948517Y494630D01*
Y493880D01*
X948330Y493318D01*
X947955Y492943D01*
X947580D01*
X947205Y493130D01*
X947018Y493318D01*
X946830Y493692D01*
X946455Y494817D01*
X946268Y495192D01*
X946081Y495379D01*
X945706Y495567D01*
X945143D01*
X944769Y495192D01*
X944581Y494630D01*
Y493880D01*
X944769Y493318D01*
X945143Y492943D01*
X948517Y496448D02*
X944581D01*
X948517D02*
X944581Y497947D01*
X948517Y499447D02*
X944581Y497947D01*
X948517Y499447D02*
X944581D01*
X948517Y500571D02*
X944581D01*
X948517D02*
Y502258D01*
X948330Y502821D01*
X948142Y503008D01*
X947768Y503195D01*
X947393D01*
X947018Y503008D01*
X946830Y502821D01*
X946643Y502258D01*
Y500571D02*
Y502258D01*
X946455Y502821D01*
X946268Y503008D01*
X945893Y503195D01*
X945331D01*
X944956Y503008D01*
X944769Y502821D01*
X944581Y502258D01*
Y500571D01*
X947580Y506888D02*
X947955Y506701D01*
X948330Y506326D01*
X948517Y505951D01*
Y505201D01*
X948330Y504826D01*
X947955Y504451D01*
X947580Y504264D01*
X947018Y504076D01*
X946081D01*
X945518Y504264D01*
X945143Y504451D01*
X944769Y504826D01*
X944581Y505201D01*
Y505951D01*
X944769Y506326D01*
X945143Y506701D01*
X945518Y506888D01*
X960317Y497900D02*
X956381Y499400D01*
X960317Y500899D02*
X956381Y499400D01*
X960317Y501405D02*
X956381D01*
X960317D02*
Y502717D01*
X960130Y503280D01*
X959755Y503655D01*
X959380Y503842D01*
X958818Y504030D01*
X957881D01*
X957318Y503842D01*
X956943Y503655D01*
X956569Y503280D01*
X956381Y502717D01*
Y501405D01*
X960317Y504911D02*
X956381D01*
X960317D02*
Y506223D01*
X960130Y506785D01*
X959755Y507160D01*
X959380Y507347D01*
X958818Y507535D01*
X957881D01*
X957318Y507347D01*
X956943Y507160D01*
X956569Y506785D01*
X956381Y506223D01*
Y504911D01*
X965382Y523797D02*
X965007Y523609D01*
X964632Y523234D01*
X964445Y522859D01*
Y522110D01*
X964632Y521735D01*
X965007Y521360D01*
X965382Y521173D01*
X965944Y520985D01*
X966882D01*
X967444Y521173D01*
X967819Y521360D01*
X968194Y521735D01*
X968381Y522110D01*
Y522859D01*
X968194Y523234D01*
X967819Y523609D01*
X967444Y523797D01*
X966882D01*
Y522859D02*
Y523797D01*
X964445Y524696D02*
X968381D01*
X964445D02*
X968381Y527320D01*
X964445D02*
X968381D01*
X964445Y528407D02*
X968381D01*
X964445D02*
Y529720D01*
X964632Y530282D01*
X965007Y530657D01*
X965382Y530844D01*
X965944Y531032D01*
X966882D01*
X967444Y530844D01*
X967819Y530657D01*
X968194Y530282D01*
X968381Y529720D01*
Y528407D01*
X935984Y535663D02*
X936359Y535476D01*
X936734Y535101D01*
X936921Y534726D01*
Y533976D01*
X936734Y533601D01*
X936359Y533226D01*
X935984Y533039D01*
X935422Y532852D01*
X934484D01*
X933922Y533039D01*
X933547Y533226D01*
X933173Y533601D01*
X932985Y533976D01*
Y534726D01*
X933173Y535101D01*
X933547Y535476D01*
X933922Y535663D01*
X932985Y539768D02*
X936921Y538269D01*
X932985Y536769D01*
X934297Y537331D02*
Y539206D01*
X936921Y540687D02*
X932985D01*
X936921D02*
X932985Y543311D01*
X936921D02*
X932985D01*
X936921Y547490D02*
X932985D01*
Y549740D01*
X901677Y532852D02*
X897741Y534351D01*
X901677Y535851D02*
X897741Y534351D01*
X901677Y536357D02*
X897741D01*
X901677D02*
Y537669D01*
X901490Y538231D01*
X901115Y538606D01*
X900740Y538793D01*
X900178Y538981D01*
X899240D01*
X898678Y538793D01*
X898303Y538606D01*
X897928Y538231D01*
X897741Y537669D01*
Y536357D01*
X901677Y539862D02*
X897741D01*
X901677D02*
Y541174D01*
X901490Y541736D01*
X901115Y542111D01*
X900740Y542298D01*
X900178Y542486D01*
X899240D01*
X898678Y542298D01*
X898303Y542111D01*
X897928Y541736D01*
X897741Y541174D01*
Y539862D01*
X913299Y532852D02*
X909363D01*
X913299D02*
Y534539D01*
X913112Y535101D01*
X912924Y535288D01*
X912549Y535476D01*
X912175D01*
X911800Y535288D01*
X911612Y535101D01*
X911425Y534539D01*
Y532852D01*
Y534164D02*
X909363Y535476D01*
X913299Y536357D02*
X909363Y538981D01*
X913299D02*
X909363Y536357D01*
X947795Y535663D02*
X948170Y535476D01*
X948545Y535101D01*
X948732Y534726D01*
Y533976D01*
X948545Y533601D01*
X948170Y533226D01*
X947795Y533039D01*
X947233Y532852D01*
X946296D01*
X945733Y533039D01*
X945358Y533226D01*
X944983Y533601D01*
X944796Y533976D01*
Y534726D01*
X944983Y535101D01*
X945358Y535476D01*
X945733Y535663D01*
X944796Y539768D02*
X948732Y538269D01*
X944796Y536769D01*
X946108Y537331D02*
Y539206D01*
X948732Y540687D02*
X944796D01*
X948732D02*
X944796Y543311D01*
X948732D02*
X944796D01*
X948732Y547490D02*
X944796D01*
X948732Y550114D02*
X944796D01*
X946858Y547490D02*
Y550114D01*
X925110Y534164D02*
X921174D01*
X925110Y532852D02*
Y535476D01*
Y535944D02*
X921174Y538568D01*
X925110D02*
X921174Y535944D01*
X591256Y458757D02*
X591444Y459131D01*
X591819Y459506D01*
X592194Y459694D01*
X592943D01*
X593318Y459506D01*
X593693Y459131D01*
X593881Y458757D01*
X594068Y458194D01*
Y457257D01*
X593881Y456695D01*
X593693Y456320D01*
X593318Y455945D01*
X592943Y455758D01*
X592194D01*
X591819Y455945D01*
X591444Y456320D01*
X591256Y456695D01*
X590151Y458944D02*
X589776Y459131D01*
X589213Y459694D01*
Y455758D01*
X586889Y459694D02*
X584827D01*
X585952Y458194D01*
X585390D01*
X585015Y458007D01*
X584827Y457819D01*
X584640Y457257D01*
Y456882D01*
X584827Y456320D01*
X585202Y455945D01*
X585765Y455758D01*
X586327D01*
X586889Y455945D01*
X587077Y456132D01*
X587264Y456507D01*
X591256Y486352D02*
X591444Y486727D01*
X591819Y487102D01*
X592194Y487289D01*
X592943D01*
X593318Y487102D01*
X593693Y486727D01*
X593881Y486352D01*
X594068Y485789D01*
Y484852D01*
X593881Y484290D01*
X593693Y483915D01*
X593318Y483540D01*
X592943Y483353D01*
X592194D01*
X591819Y483540D01*
X591444Y483915D01*
X591256Y484290D01*
X590151Y486539D02*
X589776Y486727D01*
X589213Y487289D01*
Y483353D01*
X585015Y487289D02*
X586889D01*
X587077Y485602D01*
X586889Y485789D01*
X586327Y485977D01*
X585765D01*
X585202Y485789D01*
X584827Y485415D01*
X584640Y484852D01*
Y484477D01*
X584827Y483915D01*
X585202Y483540D01*
X585765Y483353D01*
X586327D01*
X586889Y483540D01*
X587077Y483728D01*
X587264Y484102D01*
X587721Y403566D02*
X587909Y403941D01*
X588284Y404316D01*
X588659Y404503D01*
X589408D01*
X589783Y404316D01*
X590158Y403941D01*
X590345Y403566D01*
X590533Y403004D01*
Y402067D01*
X590345Y401504D01*
X590158Y401130D01*
X589783Y400755D01*
X589408Y400567D01*
X588659D01*
X588284Y400755D01*
X587909Y401130D01*
X587721Y401504D01*
X584179Y403191D02*
X584366Y402629D01*
X584741Y402254D01*
X585303Y402067D01*
X585491D01*
X586053Y402254D01*
X586428Y402629D01*
X586616Y403191D01*
Y403379D01*
X586428Y403941D01*
X586053Y404316D01*
X585491Y404503D01*
X585303D01*
X584741Y404316D01*
X584366Y403941D01*
X584179Y403191D01*
Y402254D01*
X584366Y401317D01*
X584741Y400755D01*
X585303Y400567D01*
X585678D01*
X586241Y400755D01*
X586428Y401130D01*
X589317Y431161D02*
X589504Y431536D01*
X589879Y431911D01*
X590254Y432099D01*
X591003D01*
X591378Y431911D01*
X591753Y431536D01*
X591941Y431161D01*
X592128Y430599D01*
Y429662D01*
X591941Y429100D01*
X591753Y428725D01*
X591378Y428350D01*
X591003Y428162D01*
X590254D01*
X589879Y428350D01*
X589504Y428725D01*
X589317Y429100D01*
X588211Y431349D02*
X587836Y431536D01*
X587273Y432099D01*
Y428162D01*
X585324Y431349D02*
X584949Y431536D01*
X584387Y432099D01*
Y428162D01*
X587937Y348376D02*
X588124Y348751D01*
X588499Y349126D01*
X588874Y349313D01*
X589624D01*
X589999Y349126D01*
X590374Y348751D01*
X590561Y348376D01*
X590749Y347814D01*
Y346876D01*
X590561Y346314D01*
X590374Y345939D01*
X589999Y345564D01*
X589624Y345377D01*
X588874D01*
X588499Y345564D01*
X588124Y345939D01*
X587937Y346314D01*
X584582Y349313D02*
X586456D01*
X586644Y347626D01*
X586456Y347814D01*
X585894Y348001D01*
X585332D01*
X584769Y347814D01*
X584394Y347439D01*
X584207Y346876D01*
Y346502D01*
X584394Y345939D01*
X584769Y345564D01*
X585332Y345377D01*
X585894D01*
X586456Y345564D01*
X586644Y345752D01*
X586831Y346127D01*
X587937Y375971D02*
X588124Y376346D01*
X588499Y376721D01*
X588874Y376908D01*
X589624D01*
X589999Y376721D01*
X590374Y376346D01*
X590561Y375971D01*
X590749Y375409D01*
Y374472D01*
X590561Y373909D01*
X590374Y373534D01*
X589999Y373160D01*
X589624Y372972D01*
X588874D01*
X588499Y373160D01*
X588124Y373534D01*
X587937Y373909D01*
X584207Y376908D02*
X586081Y372972D01*
X586831Y376908D02*
X584207D01*
X587937Y320781D02*
X588124Y321156D01*
X588499Y321531D01*
X588874Y321718D01*
X589624D01*
X589999Y321531D01*
X590374Y321156D01*
X590561Y320781D01*
X590749Y320218D01*
Y319281D01*
X590561Y318719D01*
X590374Y318344D01*
X589999Y317969D01*
X589624Y317782D01*
X588874D01*
X588499Y317969D01*
X588124Y318344D01*
X587937Y318719D01*
X586456Y321718D02*
X584394D01*
X585519Y320218D01*
X584957D01*
X584582Y320031D01*
X584394Y319844D01*
X584207Y319281D01*
Y318906D01*
X584394Y318344D01*
X584769Y317969D01*
X585332Y317782D01*
X585894D01*
X586456Y317969D01*
X586644Y318157D01*
X586831Y318531D01*
X585997Y293186D02*
X586184Y293561D01*
X586559Y293935D01*
X586934Y294123D01*
X587684D01*
X588059Y293935D01*
X588434Y293561D01*
X588621Y293186D01*
X588808Y292623D01*
Y291686D01*
X588621Y291124D01*
X588434Y290749D01*
X588059Y290374D01*
X587684Y290187D01*
X586934D01*
X586559Y290374D01*
X586184Y290749D01*
X585997Y291124D01*
X584891Y293373D02*
X584516Y293561D01*
X583954Y294123D01*
Y290187D01*
X587937Y279388D02*
X588124Y279763D01*
X588499Y280138D01*
X588874Y280325D01*
X589624D01*
X589999Y280138D01*
X590374Y279763D01*
X590561Y279388D01*
X590749Y278826D01*
Y277888D01*
X590561Y277326D01*
X590374Y276951D01*
X589999Y276576D01*
X589624Y276389D01*
X588874D01*
X588499Y276576D01*
X588124Y276951D01*
X587937Y277326D01*
X585707Y280325D02*
X586269Y280138D01*
X586644Y279575D01*
X586831Y278638D01*
Y278076D01*
X586644Y277139D01*
X586269Y276576D01*
X585707Y276389D01*
X585332D01*
X584769Y276576D01*
X584394Y277139D01*
X584207Y278076D01*
Y278638D01*
X584394Y279575D01*
X584769Y280138D01*
X585332Y280325D01*
X585707D01*
X587937Y306983D02*
X588124Y307358D01*
X588499Y307733D01*
X588874Y307920D01*
X589624D01*
X589999Y307733D01*
X590374Y307358D01*
X590561Y306983D01*
X590749Y306421D01*
Y305484D01*
X590561Y304921D01*
X590374Y304546D01*
X589999Y304172D01*
X589624Y303984D01*
X588874D01*
X588499Y304172D01*
X588124Y304546D01*
X587937Y304921D01*
X586644Y306983D02*
Y307171D01*
X586456Y307545D01*
X586269Y307733D01*
X585894Y307920D01*
X585144D01*
X584769Y307733D01*
X584582Y307545D01*
X584394Y307171D01*
Y306796D01*
X584582Y306421D01*
X584957Y305859D01*
X586831Y303984D01*
X584207D01*
X587721Y362174D02*
X587909Y362548D01*
X588284Y362923D01*
X588659Y363111D01*
X589408D01*
X589783Y362923D01*
X590158Y362548D01*
X590345Y362174D01*
X590533Y361611D01*
Y360674D01*
X590345Y360112D01*
X590158Y359737D01*
X589783Y359362D01*
X589408Y359174D01*
X588659D01*
X588284Y359362D01*
X587909Y359737D01*
X587721Y360112D01*
X584366Y362548D02*
X584554Y362923D01*
X585116Y363111D01*
X585491D01*
X586053Y362923D01*
X586428Y362361D01*
X586616Y361424D01*
Y360487D01*
X586428Y359737D01*
X586053Y359362D01*
X585491Y359174D01*
X585303D01*
X584741Y359362D01*
X584366Y359737D01*
X584179Y360299D01*
Y360487D01*
X584366Y361049D01*
X584741Y361424D01*
X585303Y361611D01*
X585491D01*
X586053Y361424D01*
X586428Y361049D01*
X586616Y360487D01*
X588153Y334578D02*
X588340Y334953D01*
X588715Y335328D01*
X589090Y335515D01*
X589839D01*
X590214Y335328D01*
X590589Y334953D01*
X590777Y334578D01*
X590964Y334016D01*
Y333079D01*
X590777Y332517D01*
X590589Y332142D01*
X590214Y331767D01*
X589839Y331579D01*
X589090D01*
X588715Y331767D01*
X588340Y332142D01*
X588153Y332517D01*
X585172Y335515D02*
X587047Y332891D01*
X584235D01*
X585172Y335515D02*
Y331579D01*
X591256Y417364D02*
X591444Y417739D01*
X591819Y418114D01*
X592194Y418301D01*
X592943D01*
X593318Y418114D01*
X593693Y417739D01*
X593881Y417364D01*
X594068Y416802D01*
Y415864D01*
X593881Y415302D01*
X593693Y414927D01*
X593318Y414552D01*
X592943Y414365D01*
X592194D01*
X591819Y414552D01*
X591444Y414927D01*
X591256Y415302D01*
X590151Y417551D02*
X589776Y417739D01*
X589213Y418301D01*
Y414365D01*
X586139Y418301D02*
X586702Y418114D01*
X587077Y417551D01*
X587264Y416614D01*
Y416052D01*
X587077Y415115D01*
X586702Y414552D01*
X586139Y414365D01*
X585765D01*
X585202Y414552D01*
X584827Y415115D01*
X584640Y416052D01*
Y416614D01*
X584827Y417551D01*
X585202Y418114D01*
X585765Y418301D01*
X586139D01*
X587937Y389769D02*
X588124Y390143D01*
X588499Y390518D01*
X588874Y390706D01*
X589624D01*
X589999Y390518D01*
X590374Y390143D01*
X590561Y389769D01*
X590749Y389206D01*
Y388269D01*
X590561Y387707D01*
X590374Y387332D01*
X589999Y386957D01*
X589624Y386770D01*
X588874D01*
X588499Y386957D01*
X588124Y387332D01*
X587937Y387707D01*
X585894Y390706D02*
X586456Y390518D01*
X586644Y390143D01*
Y389769D01*
X586456Y389394D01*
X586081Y389206D01*
X585332Y389019D01*
X584769Y388831D01*
X584394Y388457D01*
X584207Y388082D01*
Y387519D01*
X584394Y387144D01*
X584582Y386957D01*
X585144Y386770D01*
X585894D01*
X586456Y386957D01*
X586644Y387144D01*
X586831Y387519D01*
Y388082D01*
X586644Y388457D01*
X586269Y388831D01*
X585707Y389019D01*
X584957Y389206D01*
X584582Y389394D01*
X584394Y389769D01*
Y390143D01*
X584582Y390518D01*
X585144Y390706D01*
X585894D01*
X591472Y472554D02*
X591659Y472929D01*
X592034Y473304D01*
X592409Y473491D01*
X593159D01*
X593534Y473304D01*
X593909Y472929D01*
X594096Y472554D01*
X594283Y471992D01*
Y471055D01*
X594096Y470492D01*
X593909Y470118D01*
X593534Y469743D01*
X593159Y469555D01*
X592409D01*
X592034Y469743D01*
X591659Y470118D01*
X591472Y470492D01*
X590366Y472742D02*
X589991Y472929D01*
X589429Y473491D01*
Y469555D01*
X585605Y473491D02*
X587480Y470867D01*
X584668D01*
X585605Y473491D02*
Y469555D01*
X591256Y444959D02*
X591444Y445334D01*
X591819Y445709D01*
X592194Y445896D01*
X592943D01*
X593318Y445709D01*
X593693Y445334D01*
X593881Y444959D01*
X594068Y444397D01*
Y443460D01*
X593881Y442897D01*
X593693Y442522D01*
X593318Y442147D01*
X592943Y441960D01*
X592194D01*
X591819Y442147D01*
X591444Y442522D01*
X591256Y442897D01*
X590151Y445146D02*
X589776Y445334D01*
X589213Y445896D01*
Y441960D01*
X587077Y444959D02*
Y445146D01*
X586889Y445521D01*
X586702Y445709D01*
X586327Y445896D01*
X585577D01*
X585202Y445709D01*
X585015Y445521D01*
X584827Y445146D01*
Y444772D01*
X585015Y444397D01*
X585390Y443834D01*
X587264Y441960D01*
X584640D01*
D57*
X533691Y507800D02*
X527693D01*
X533691D02*
Y510371D01*
X533406Y511228D01*
X533120Y511514D01*
X532549Y511799D01*
X531978D01*
X531406Y511514D01*
X531120Y511228D01*
X530835Y510371D01*
Y507800D02*
Y510371D01*
X530549Y511228D01*
X530264Y511514D01*
X529692Y511799D01*
X528835D01*
X528264Y511514D01*
X527978Y511228D01*
X527693Y510371D01*
Y507800D01*
X533691Y513142D02*
X527693D01*
X533691D02*
X527693Y515427D01*
X533691Y517712D02*
X527693Y515427D01*
X533691Y517712D02*
X527693D01*
X532834Y523425D02*
X533406Y522854D01*
X533691Y521997D01*
Y520854D01*
X533406Y519997D01*
X532834Y519426D01*
X532263D01*
X531692Y519712D01*
X531406Y519997D01*
X531120Y520569D01*
X530549Y522283D01*
X530264Y522854D01*
X529978Y523140D01*
X529407Y523425D01*
X528550D01*
X527978Y522854D01*
X527693Y521997D01*
Y520854D01*
X527978Y519997D01*
X528550Y519426D01*
X530549Y529481D02*
Y532052D01*
X530835Y532909D01*
X531120Y533194D01*
X531692Y533480D01*
X532549D01*
X533120Y533194D01*
X533406Y532909D01*
X533691Y532052D01*
Y529481D01*
X527693D01*
Y539393D02*
X533691Y537108D01*
X527693Y534823D01*
X529692Y535680D02*
Y538536D01*
X533691Y540793D02*
X527693D01*
X533691D02*
X527693Y544792D01*
X533691D02*
X527693D01*
X533691Y550162D02*
Y546449D01*
X527693D01*
Y550162D01*
X530835Y546449D02*
Y548734D01*
X533691Y551162D02*
X527693D01*
Y554590D01*
X533691Y559960D02*
X527693D01*
X533691D02*
Y562531D01*
X533406Y563388D01*
X533120Y563674D01*
X532549Y563959D01*
X531978D01*
X531406Y563674D01*
X531120Y563388D01*
X530835Y562531D01*
Y559960D01*
Y561960D02*
X527693Y563959D01*
X533691Y567016D02*
X533406Y566159D01*
X532549Y565588D01*
X531120Y565302D01*
X530264D01*
X528835Y565588D01*
X527978Y566159D01*
X527693Y567016D01*
Y567587D01*
X527978Y568444D01*
X528835Y569015D01*
X530264Y569301D01*
X531120D01*
X532549Y569015D01*
X533406Y568444D01*
X533691Y567587D01*
Y567016D01*
Y572358D02*
X533406Y571501D01*
X532549Y570929D01*
X531120Y570644D01*
X530264D01*
X528835Y570929D01*
X527978Y571501D01*
X527693Y572358D01*
Y572929D01*
X527978Y573786D01*
X528835Y574357D01*
X530264Y574643D01*
X531120D01*
X532549Y574357D01*
X533406Y573786D01*
X533691Y572929D01*
Y572358D01*
X525591Y507800D02*
X519593D01*
X525591D02*
Y510371D01*
X525306Y511228D01*
X525020Y511514D01*
X524449Y511799D01*
X523877D01*
X523306Y511514D01*
X523021Y511228D01*
X522735Y510371D01*
Y507800D02*
Y510371D01*
X522449Y511228D01*
X522163Y511514D01*
X521592Y511799D01*
X520735D01*
X520164Y511514D01*
X519878Y511228D01*
X519593Y510371D01*
Y507800D01*
X525591Y514856D02*
X525306Y514284D01*
X524734Y513713D01*
X524163Y513427D01*
X523306Y513142D01*
X521878D01*
X521021Y513427D01*
X520450Y513713D01*
X519878Y514284D01*
X519593Y514856D01*
Y515998D01*
X519878Y516570D01*
X520450Y517141D01*
X521021Y517426D01*
X521878Y517712D01*
X523306D01*
X524163Y517426D01*
X524734Y517141D01*
X525306Y516570D01*
X525591Y515998D01*
Y514856D01*
Y521111D02*
X519593D01*
X525591Y519112D02*
Y523111D01*
Y525825D02*
X519593D01*
X525591Y523825D02*
Y527824D01*
Y530252D02*
X525306Y529681D01*
X524734Y529110D01*
X524163Y528824D01*
X523306Y528538D01*
X521878D01*
X521021Y528824D01*
X520450Y529110D01*
X519878Y529681D01*
X519593Y530252D01*
Y531395D01*
X519878Y531966D01*
X520450Y532538D01*
X521021Y532823D01*
X521878Y533109D01*
X523306D01*
X524163Y532823D01*
X524734Y532538D01*
X525306Y531966D01*
X525591Y531395D01*
Y530252D01*
Y534509D02*
X519593D01*
X525591D02*
X519593Y536794D01*
X525591Y539079D02*
X519593Y536794D01*
X525591Y539079D02*
X519593D01*
X22187Y507900D02*
X16188D01*
X22187D02*
Y510471D01*
X21901Y511328D01*
X21616Y511614D01*
X21044Y511899D01*
X20473D01*
X19902Y511614D01*
X19616Y511328D01*
X19331Y510471D01*
Y507900D02*
Y510471D01*
X19045Y511328D01*
X18759Y511614D01*
X18188Y511899D01*
X17331D01*
X16760Y511614D01*
X16474Y511328D01*
X16188Y510471D01*
Y507900D01*
X22187Y513242D02*
X16188D01*
X22187D02*
X16188Y515527D01*
X22187Y517812D02*
X16188Y515527D01*
X22187Y517812D02*
X16188D01*
X21330Y523525D02*
X21901Y522954D01*
X22187Y522097D01*
Y520954D01*
X21901Y520097D01*
X21330Y519526D01*
X20759D01*
X20187Y519812D01*
X19902Y520097D01*
X19616Y520669D01*
X19045Y522383D01*
X18759Y522954D01*
X18474Y523240D01*
X17902Y523525D01*
X17045D01*
X16474Y522954D01*
X16188Y522097D01*
Y520954D01*
X16474Y520097D01*
X17045Y519526D01*
X19045Y529581D02*
Y532152D01*
X19331Y533009D01*
X19616Y533294D01*
X20187Y533580D01*
X21044D01*
X21616Y533294D01*
X21901Y533009D01*
X22187Y532152D01*
Y529581D01*
X16188D01*
Y539493D02*
X22187Y537208D01*
X16188Y534923D01*
X18188Y535780D02*
Y538636D01*
X22187Y540893D02*
X16188D01*
X22187D02*
X16188Y544892D01*
X22187D02*
X16188D01*
X22187Y550262D02*
Y546549D01*
X16188D01*
Y550262D01*
X19331Y546549D02*
Y548834D01*
X22187Y551262D02*
X16188D01*
Y554690D01*
X22187Y560060D02*
X16188D01*
X22187D02*
Y562631D01*
X21901Y563488D01*
X21616Y563774D01*
X21044Y564059D01*
X20473D01*
X19902Y563774D01*
X19616Y563488D01*
X19331Y562631D01*
Y560060D01*
Y562060D02*
X16188Y564059D01*
X22187Y567116D02*
X21901Y566259D01*
X21044Y565688D01*
X19616Y565402D01*
X18759D01*
X17331Y565688D01*
X16474Y566259D01*
X16188Y567116D01*
Y567687D01*
X16474Y568544D01*
X17331Y569115D01*
X18759Y569401D01*
X19616D01*
X21044Y569115D01*
X21901Y568544D01*
X22187Y567687D01*
Y567116D01*
Y572458D02*
X21901Y571601D01*
X21044Y571029D01*
X19616Y570744D01*
X18759D01*
X17331Y571029D01*
X16474Y571601D01*
X16188Y572458D01*
Y573029D01*
X16474Y573886D01*
X17331Y574457D01*
X18759Y574743D01*
X19616D01*
X21044Y574457D01*
X21901Y573886D01*
X22187Y573029D01*
Y572458D01*
X14087Y507900D02*
X8088D01*
X14087D02*
Y510471D01*
X13801Y511328D01*
X13516Y511614D01*
X12944Y511899D01*
X12373D01*
X11802Y511614D01*
X11516Y511328D01*
X11231Y510471D01*
Y507900D02*
Y510471D01*
X10945Y511328D01*
X10659Y511614D01*
X10088Y511899D01*
X9231D01*
X8660Y511614D01*
X8374Y511328D01*
X8088Y510471D01*
Y507900D01*
X14087Y514956D02*
X13801Y514384D01*
X13230Y513813D01*
X12659Y513527D01*
X11802Y513242D01*
X10373D01*
X9516Y513527D01*
X8945Y513813D01*
X8374Y514384D01*
X8088Y514956D01*
Y516098D01*
X8374Y516670D01*
X8945Y517241D01*
X9516Y517526D01*
X10373Y517812D01*
X11802D01*
X12659Y517526D01*
X13230Y517241D01*
X13801Y516670D01*
X14087Y516098D01*
Y514956D01*
Y521211D02*
X8088D01*
X14087Y519212D02*
Y523211D01*
Y525925D02*
X8088D01*
X14087Y523925D02*
Y527924D01*
Y530352D02*
X13801Y529781D01*
X13230Y529210D01*
X12659Y528924D01*
X11802Y528638D01*
X10373D01*
X9516Y528924D01*
X8945Y529210D01*
X8374Y529781D01*
X8088Y530352D01*
Y531495D01*
X8374Y532066D01*
X8945Y532638D01*
X9516Y532923D01*
X10373Y533209D01*
X11802D01*
X12659Y532923D01*
X13230Y532638D01*
X13801Y532066D01*
X14087Y531495D01*
Y530352D01*
Y534609D02*
X8088D01*
X14087D02*
X8088Y536894D01*
X14087Y539179D02*
X8088Y536894D01*
X14087Y539179D02*
X8088D01*
X461811Y239391D02*
X459280D01*
X458437Y239672D01*
X458156Y239953D01*
X457875Y240515D01*
Y241359D01*
X458156Y241921D01*
X458437Y242202D01*
X459280Y242483D01*
X461811D01*
Y236579D01*
X452055D02*
X454304Y242483D01*
X456553Y236579D01*
X455710Y238547D02*
X452898D01*
X446460Y241078D02*
X446741Y241640D01*
X447303Y242202D01*
X447866Y242483D01*
X448990D01*
X449553Y242202D01*
X450115Y241640D01*
X450396Y241078D01*
X450677Y240234D01*
Y238828D01*
X450396Y237985D01*
X450115Y237423D01*
X449553Y236860D01*
X448990Y236579D01*
X447866D01*
X447303Y236860D01*
X446741Y237423D01*
X446460Y237985D01*
X444801Y242483D02*
Y236579D01*
X440865Y242483D02*
X444801Y238547D01*
X443395Y239953D02*
X440865Y236579D01*
X439543Y239109D02*
X434483D01*
X461811Y85777D02*
X459280D01*
X458437Y86058D01*
X458156Y86340D01*
X457875Y86902D01*
Y87745D01*
X458156Y88308D01*
X458437Y88589D01*
X459280Y88870D01*
X461811D01*
Y82966D01*
X452055D02*
X454304Y88870D01*
X456553Y82966D01*
X455710Y84934D02*
X452898D01*
X446460Y87464D02*
X446741Y88026D01*
X447303Y88589D01*
X447866Y88870D01*
X448990D01*
X449553Y88589D01*
X450115Y88026D01*
X450396Y87464D01*
X450677Y86621D01*
Y85215D01*
X450396Y84372D01*
X450115Y83809D01*
X449553Y83247D01*
X448990Y82966D01*
X447866D01*
X447303Y83247D01*
X446741Y83809D01*
X446460Y84372D01*
X444801Y88870D02*
Y82966D01*
X440865Y88870D02*
X444801Y84934D01*
X443395Y86340D02*
X440865Y82966D01*
X437013Y88026D02*
Y82966D01*
X439543Y85496D02*
X434483D01*
X75782Y88870D02*
Y82966D01*
Y88870D02*
X73252D01*
X72408Y88589D01*
X72127Y88308D01*
X71846Y87745D01*
Y87183D01*
X72127Y86621D01*
X72408Y86340D01*
X73252Y86058D01*
X75782D02*
X73252D01*
X72408Y85777D01*
X72127Y85496D01*
X71846Y84934D01*
Y84090D01*
X72127Y83528D01*
X72408Y83247D01*
X73252Y82966D01*
X75782D01*
X66026D02*
X68275Y88870D01*
X70525Y82966D01*
X69681Y84934D02*
X66870D01*
X62681Y88870D02*
Y82966D01*
X64649Y88870D02*
X60712D01*
X58042D02*
Y82966D01*
X60010Y88870D02*
X56073D01*
X52840Y88026D02*
Y82966D01*
X55370Y85496D02*
X50310D01*
X75782Y188677D02*
Y182772D01*
Y188677D02*
X73252D01*
X72408Y188396D01*
X72127Y188114D01*
X71846Y187552D01*
Y186990D01*
X72127Y186427D01*
X72408Y186146D01*
X73252Y185865D01*
X75782D02*
X73252D01*
X72408Y185584D01*
X72127Y185303D01*
X71846Y184740D01*
Y183897D01*
X72127Y183335D01*
X72408Y183054D01*
X73252Y182772D01*
X75782D01*
X66026D02*
X68275Y188677D01*
X70525Y182772D01*
X69681Y184740D02*
X66870D01*
X62681Y188677D02*
Y182772D01*
X64649Y188677D02*
X60712D01*
X58042D02*
Y182772D01*
X60010Y188677D02*
X56073D01*
X55370Y185303D02*
X50310D01*
X973622Y239391D02*
X971091D01*
X970248Y239672D01*
X969967Y239953D01*
X969686Y240515D01*
Y241359D01*
X969967Y241921D01*
X970248Y242202D01*
X971091Y242483D01*
X973622D01*
Y236579D01*
X963866D02*
X966115Y242483D01*
X968364Y236579D01*
X967521Y238547D02*
X964709D01*
X958271Y241078D02*
X958552Y241640D01*
X959114Y242202D01*
X959677Y242483D01*
X960801D01*
X961364Y242202D01*
X961926Y241640D01*
X962207Y241078D01*
X962488Y240234D01*
Y238828D01*
X962207Y237985D01*
X961926Y237423D01*
X961364Y236860D01*
X960801Y236579D01*
X959677D01*
X959114Y236860D01*
X958552Y237423D01*
X958271Y237985D01*
X956612Y242483D02*
Y236579D01*
X952676Y242483D02*
X956612Y238547D01*
X955206Y239953D02*
X952676Y236579D01*
X951355Y239109D02*
X946294D01*
X973622Y85777D02*
X971091D01*
X970248Y86058D01*
X969967Y86340D01*
X969686Y86902D01*
Y87745D01*
X969967Y88308D01*
X970248Y88589D01*
X971091Y88870D01*
X973622D01*
Y82966D01*
X963866D02*
X966115Y88870D01*
X968364Y82966D01*
X967521Y84934D02*
X964709D01*
X958271Y87464D02*
X958552Y88026D01*
X959114Y88589D01*
X959677Y88870D01*
X960801D01*
X961364Y88589D01*
X961926Y88026D01*
X962207Y87464D01*
X962488Y86621D01*
Y85215D01*
X962207Y84372D01*
X961926Y83809D01*
X961364Y83247D01*
X960801Y82966D01*
X959677D01*
X959114Y83247D01*
X958552Y83809D01*
X958271Y84372D01*
X956612Y88870D02*
Y82966D01*
X952676Y88870D02*
X956612Y84934D01*
X955206Y86340D02*
X952676Y82966D01*
X948824Y88026D02*
Y82966D01*
X951355Y85496D02*
X946294D01*
X587593Y88870D02*
Y82966D01*
Y88870D02*
X585063D01*
X584220Y88589D01*
X583938Y88308D01*
X583657Y87745D01*
Y87183D01*
X583938Y86621D01*
X584220Y86340D01*
X585063Y86058D01*
X587593D02*
X585063D01*
X584220Y85777D01*
X583938Y85496D01*
X583657Y84934D01*
Y84090D01*
X583938Y83528D01*
X584220Y83247D01*
X585063Y82966D01*
X587593D01*
X577837D02*
X580087Y88870D01*
X582336Y82966D01*
X581492Y84934D02*
X578681D01*
X574492Y88870D02*
Y82966D01*
X576460Y88870D02*
X572523D01*
X569852D02*
Y82966D01*
X571821Y88870D02*
X567884D01*
X564651Y88026D02*
Y82966D01*
X567181Y85496D02*
X562121D01*
X587593Y188677D02*
Y182772D01*
Y188677D02*
X585063D01*
X584220Y188396D01*
X583938Y188114D01*
X583657Y187552D01*
Y186990D01*
X583938Y186427D01*
X584220Y186146D01*
X585063Y185865D01*
X587593D02*
X585063D01*
X584220Y185584D01*
X583938Y185303D01*
X583657Y184740D01*
Y183897D01*
X583938Y183335D01*
X584220Y183054D01*
X585063Y182772D01*
X587593D01*
X577837D02*
X580087Y188677D01*
X582336Y182772D01*
X581492Y184740D02*
X578681D01*
X574492Y188677D02*
Y182772D01*
X576460Y188677D02*
X572523D01*
X569852D02*
Y182772D01*
X571821Y188677D02*
X567884D01*
X567181Y185303D02*
X562121D01*
M02*
