G04*
G04 #@! TF.GenerationSoftware,Altium Limited,Altium Designer,18.0.7 (293)*
G04*
G04 Layer_Color=16711935*
%FSLAX25Y25*%
%MOIN*%
G70*
G01*
G75*
%ADD14C,0.05000*%
%ADD141C,0.18400*%
%ADD142C,0.07690*%
%ADD143R,0.07690X0.07690*%
G04:AMPARAMS|DCode=144|XSize=658mil|YSize=358mil|CornerRadius=39mil|HoleSize=0mil|Usage=FLASHONLY|Rotation=0.000|XOffset=0mil|YOffset=0mil|HoleType=Round|Shape=RoundedRectangle|*
%AMROUNDEDRECTD144*
21,1,0.65800,0.28000,0,0,0.0*
21,1,0.58000,0.35800,0,0,0.0*
1,1,0.07800,0.29000,-0.14000*
1,1,0.07800,-0.29000,-0.14000*
1,1,0.07800,-0.29000,0.14000*
1,1,0.07800,0.29000,0.14000*
%
%ADD144ROUNDEDRECTD144*%
%ADD145R,0.06584X0.06584*%
%ADD146C,0.06584*%
%ADD147C,0.04616*%
%ADD148C,0.09300*%
%ADD149R,0.09300X0.09300*%
%ADD150R,0.07300X0.07300*%
%ADD151C,0.07300*%
%ADD152C,0.13398*%
%ADD153R,0.05000X0.05000*%
D14*
X450370Y474685D02*
D03*
X455370D02*
D03*
Y469685D02*
D03*
Y479685D02*
D03*
Y484685D02*
D03*
X450370Y479685D02*
D03*
Y484685D02*
D03*
Y469685D02*
D03*
Y464685D02*
D03*
X962181Y474685D02*
D03*
X967181D02*
D03*
Y469685D02*
D03*
Y479685D02*
D03*
Y484685D02*
D03*
X962181Y479685D02*
D03*
Y484685D02*
D03*
Y469685D02*
D03*
Y464685D02*
D03*
D141*
X460375Y122436D02*
G03*
X460375Y122436I-8800J0D01*
G01*
X68836Y212987D02*
G03*
X68836Y212987I-8800J0D01*
G01*
Y122436D02*
G03*
X68836Y122436I-8800J0D01*
G01*
X460375Y212987D02*
G03*
X460375Y212987I-8800J0D01*
G01*
X972186Y122436D02*
G03*
X972186Y122436I-8800J0D01*
G01*
X580647Y212987D02*
G03*
X580647Y212987I-8800J0D01*
G01*
Y122436D02*
G03*
X580647Y122436I-8800J0D01*
G01*
X972186Y212987D02*
G03*
X972186Y212987I-8800J0D01*
G01*
D142*
X423470Y474485D02*
D03*
Y484485D02*
D03*
X935281Y474485D02*
D03*
Y484485D02*
D03*
D143*
X423470Y464485D02*
D03*
X935281D02*
D03*
D144*
X422949Y122436D02*
D03*
X88662Y212987D02*
D03*
Y122436D02*
D03*
X422949Y212987D02*
D03*
X934760Y122436D02*
D03*
X600473Y212987D02*
D03*
Y122436D02*
D03*
X934760Y212987D02*
D03*
D145*
X387759Y527085D02*
D03*
X899570D02*
D03*
D146*
X399570D02*
D03*
X411381D02*
D03*
X423192D02*
D03*
X435003D02*
D03*
X446814D02*
D03*
X387759Y515274D02*
D03*
X399570D02*
D03*
X411381D02*
D03*
X423192D02*
D03*
X435003D02*
D03*
X446814D02*
D03*
X911381Y527085D02*
D03*
X923192D02*
D03*
X935003D02*
D03*
X946814D02*
D03*
X958625D02*
D03*
X899570Y515274D02*
D03*
X911381D02*
D03*
X923192D02*
D03*
X935003D02*
D03*
X946814D02*
D03*
X958625D02*
D03*
D147*
X375948Y511573D02*
D03*
X458625D02*
D03*
X887759D02*
D03*
X970436D02*
D03*
D148*
X64370Y347728D02*
D03*
Y361508D02*
D03*
Y375287D02*
D03*
Y389067D02*
D03*
Y402846D02*
D03*
Y416626D02*
D03*
Y430406D02*
D03*
Y444185D02*
D03*
Y457965D02*
D03*
Y471744D02*
D03*
Y333949D02*
D03*
Y320169D02*
D03*
Y306390D02*
D03*
Y292610D02*
D03*
Y278831D02*
D03*
X576181Y347728D02*
D03*
Y361508D02*
D03*
Y375287D02*
D03*
Y389067D02*
D03*
Y402846D02*
D03*
Y416626D02*
D03*
Y430406D02*
D03*
Y444185D02*
D03*
Y457965D02*
D03*
Y471744D02*
D03*
Y333949D02*
D03*
Y320169D02*
D03*
Y306390D02*
D03*
Y292610D02*
D03*
Y278831D02*
D03*
D149*
X64370Y485524D02*
D03*
X576181D02*
D03*
D150*
X307870Y375685D02*
D03*
Y356185D02*
D03*
Y345685D02*
D03*
X819681Y375685D02*
D03*
Y356185D02*
D03*
Y345685D02*
D03*
D151*
X307870Y385685D02*
D03*
Y366185D02*
D03*
Y335685D02*
D03*
X819681Y385685D02*
D03*
Y366185D02*
D03*
Y335685D02*
D03*
D152*
X59055Y39370D02*
D03*
X452756D02*
D03*
X59055Y559055D02*
D03*
X452756D02*
D03*
X570866Y39370D02*
D03*
X964567D02*
D03*
X570866Y559055D02*
D03*
X964567D02*
D03*
D153*
X455370Y464685D02*
D03*
X967181D02*
D03*
M02*
