G04*
G04 #@! TF.GenerationSoftware,Altium Limited,Altium Designer,18.0.7 (293)*
G04*
G04 Layer_Color=255*
%FSLAX25Y25*%
%MOIN*%
G70*
G01*
G75*
%ADD62C,0.06890*%
%ADD63R,0.06890X0.06890*%
G04:AMPARAMS|DCode=64|XSize=650mil|YSize=350mil|CornerRadius=35mil|HoleSize=0mil|Usage=FLASHONLY|Rotation=0.000|XOffset=0mil|YOffset=0mil|HoleType=Round|Shape=RoundedRectangle|*
%AMROUNDEDRECTD64*
21,1,0.65000,0.28000,0,0,0.0*
21,1,0.58000,0.35000,0,0,0.0*
1,1,0.07000,0.29000,-0.14000*
1,1,0.07000,-0.29000,-0.14000*
1,1,0.07000,-0.29000,0.14000*
1,1,0.07000,0.29000,0.14000*
%
%ADD64ROUNDEDRECTD64*%
%ADD65R,0.05984X0.05984*%
%ADD66C,0.05984*%
%ADD67C,0.04016*%
%ADD68C,0.08500*%
%ADD69R,0.08500X0.08500*%
%ADD70R,0.06500X0.06500*%
%ADD71C,0.06500*%
%ADD72C,0.12598*%
%ADD73C,0.04200*%
%ADD74R,0.04200X0.04200*%
D62*
X423470Y474485D02*
D03*
Y484485D02*
D03*
X935281Y474485D02*
D03*
Y484485D02*
D03*
D63*
X423470Y464485D02*
D03*
X935281D02*
D03*
D64*
X422949Y122436D02*
D03*
X88662Y212987D02*
D03*
Y122436D02*
D03*
X422949Y212987D02*
D03*
X934760Y122436D02*
D03*
X600473Y212987D02*
D03*
Y122436D02*
D03*
X934760Y212987D02*
D03*
D65*
X387759Y527085D02*
D03*
X899570D02*
D03*
D66*
X399570D02*
D03*
X411381D02*
D03*
X423192D02*
D03*
X435003D02*
D03*
X446814D02*
D03*
X387759Y515274D02*
D03*
X399570D02*
D03*
X411381D02*
D03*
X423192D02*
D03*
X435003D02*
D03*
X446814D02*
D03*
X911381Y527085D02*
D03*
X923192D02*
D03*
X935003D02*
D03*
X946814D02*
D03*
X958625D02*
D03*
X899570Y515274D02*
D03*
X911381D02*
D03*
X923192D02*
D03*
X935003D02*
D03*
X946814D02*
D03*
X958625D02*
D03*
D67*
X375948Y511573D02*
D03*
X458625D02*
D03*
X887759D02*
D03*
X970436D02*
D03*
D68*
X64370Y347728D02*
D03*
Y361508D02*
D03*
Y375287D02*
D03*
Y389067D02*
D03*
Y402846D02*
D03*
Y416626D02*
D03*
Y430406D02*
D03*
Y444185D02*
D03*
Y457965D02*
D03*
Y471744D02*
D03*
Y333949D02*
D03*
Y320169D02*
D03*
Y306390D02*
D03*
Y292610D02*
D03*
Y278831D02*
D03*
X576181Y347728D02*
D03*
Y361508D02*
D03*
Y375287D02*
D03*
Y389067D02*
D03*
Y402846D02*
D03*
Y416626D02*
D03*
Y430406D02*
D03*
Y444185D02*
D03*
Y457965D02*
D03*
Y471744D02*
D03*
Y333949D02*
D03*
Y320169D02*
D03*
Y306390D02*
D03*
Y292610D02*
D03*
Y278831D02*
D03*
D69*
X64370Y485524D02*
D03*
X576181D02*
D03*
D70*
X307870Y375685D02*
D03*
Y356185D02*
D03*
Y345685D02*
D03*
X819681Y375685D02*
D03*
Y356185D02*
D03*
Y345685D02*
D03*
D71*
X307870Y385685D02*
D03*
Y366185D02*
D03*
Y335685D02*
D03*
X819681Y385685D02*
D03*
Y366185D02*
D03*
Y335685D02*
D03*
D72*
X59055Y39370D02*
D03*
X452756D02*
D03*
X59055Y559055D02*
D03*
X452756D02*
D03*
X570866Y39370D02*
D03*
X964567D02*
D03*
X570866Y559055D02*
D03*
X964567D02*
D03*
D73*
X450370Y474685D02*
D03*
X455370D02*
D03*
Y469685D02*
D03*
Y479685D02*
D03*
Y484685D02*
D03*
X450370Y479685D02*
D03*
Y484685D02*
D03*
Y469685D02*
D03*
Y464685D02*
D03*
X962181Y474685D02*
D03*
X967181D02*
D03*
Y469685D02*
D03*
Y479685D02*
D03*
Y484685D02*
D03*
X962181Y479685D02*
D03*
Y484685D02*
D03*
Y469685D02*
D03*
Y464685D02*
D03*
D74*
X455370D02*
D03*
X967181D02*
D03*
M02*
